<svg xmlns="http://www.w3.org/2000/svg" width="61" height="61" viewBox="0 0 61 61" fill="none"><path fill-rule="evenodd" clip-rule="evenodd" d="M1.82475 1.50415L1.56867 2.01255L2.47124 3.80443L2.52469 3.91055V4.02936V7.02679L10.1207 6.55553L10.2672 6.54644L10.3954 6.61801L18.5224 11.1558L18.6562 11.2306L18.7252 11.3675L19.547 12.999L23.5971 11.6589L25.5454 9.72493L25.6631 9.60803L25.8274 9.58473L29.383 9.08053L29.6591 9.04137L29.8375 9.25574L39.4883 20.8524L39.6234 21.0148L39.6011 21.2249L38.6569 30.1294L40.5304 29.7574L41.5351 29.558L41.0743 30.4728L39.6681 33.2645L42.705 38.863L43.2603 38.0363L43.5979 37.5336L44.0276 37.9602L45.0435 38.9686L45.4009 39.3235L45.0435 39.6783L44.1753 40.5401V42.5134L46.3995 43.3966L46.6687 43.5034L46.7099 43.7901L47.1766 47.0329L49.4471 47.9344L49.5694 47.9829L49.6519 48.0854L51.6837 50.6064L51.7944 50.7437V50.9201V53.5841L52.8545 53.9349L57.9054 53.0233V50.4159V50.2636L57.9904 50.1371L58.9279 48.7411L59.4245 37.4042L54.9024 27.4291L54.8421 27.296L54.8629 27.1514L55.3522 23.7517L47.8706 4.44239L44.7757 3.56463L43.8138 4.20117L44.6298 5.82124L44.8561 6.27043L44.4056 6.49404L43.3897 6.99824L43.1149 7.13463L42.8688 6.95143L40.8952 5.48207L21.7961 4.02371L21.5394 4.00411L21.4062 3.7838L20.0283 1.50415H1.82475ZM41.6613 4.80575L41.6817 4.53922L22.1289 3.04621L20.7382 0.745506L20.5924 0.50415H20.3103H1.51676V1.00415L1.07021 0.779222L0.562271 1.78763L0.448975 2.01255L0.562271 2.23748L1.52469 4.14818V7.55877V8.09075L2.05565 8.05781L10.0361 7.5627L17.901 11.9542L18.8479 13.8341L19.042 14.2194L19.4515 14.0839L24.023 12.5713L24.1346 12.5343L24.2181 12.4514L26.1321 10.5515L29.2472 10.1098L38.5844 21.3296L37.5908 30.6993L37.5192 31.3747L38.1854 31.2425L39.7204 30.9377L38.6574 33.0481L38.5398 33.2816L38.6644 33.5115L42.22 40.0661L42.6139 40.7923L43.0745 40.1064L43.7528 39.0965L43.9815 39.3235L43.3231 39.977L43.1753 40.1237V40.3319V42.8529V43.1923L43.4908 43.3176L45.7614 44.2191L46.228 47.4619L46.2693 47.7485L46.5384 47.8554L48.9559 48.8153L50.7944 51.0965V53.9453V54.3065L51.1373 54.42L52.6611 54.9242L52.7818 54.9642L52.907 54.9416L58.4943 53.9332L58.9054 53.859V53.4411V50.5682L59.8364 49.1821L59.9147 49.0655L59.9208 48.9252L60.4288 37.3285L60.434 37.2091L60.3846 37.1002L55.8736 27.1493L56.3607 23.7644L56.3793 23.6348L56.332 23.5126L48.713 3.84871L48.6229 3.61633L48.3832 3.54833L44.8276 2.53993L44.6067 2.47728L44.4153 2.60399L42.8915 3.61239L42.521 3.85755L42.7209 4.25429L43.5105 5.8219L43.2199 5.96611L41.6613 4.80575ZM50.7373 57.479H50.7864H51.2944H51.7944V57.979V58.9874V59.2561L51.5703 59.4044L50.0465 60.4128L49.921 60.4958H49.7706H47.2309H46.7309V59.9958V58.9874V58.6774L47.0086 58.5395L48.0245 58.0353L48.0841 58.0057L48.1494 57.9928L50.6891 57.4886L50.7373 57.479ZM50.7944 58.4872L48.4094 58.9607L47.7309 59.2974V59.4958H49.6201L50.7944 58.7187V58.4872Z" fill="#FF8888"></path></svg>