<svg xmlns="http://www.w3.org/2000/svg" width="60" height="60" viewBox="0 0 60 60" fill="none"><g clip-path="url(#clip0)"><path d="M36.7505 19.9361H27.2059C26.7758 19.9361 26.427 19.5875 26.427 19.1572C26.427 18.727 26.7758 18.3783 27.2059 18.3783H36.7505C37.1807 18.3783 37.5294 18.727 37.5294 19.1572C37.5294 19.5875 37.1808 19.9361 36.7505 19.9361Z" fill="#FF8888" stroke="white" stroke-width="0.2"></path><path d="M46.2952 15.4247H27.2059C26.7758 15.4247 26.427 15.076 26.427 14.6458C26.427 14.2155 26.7758 13.8668 27.2059 13.8668H46.2952C46.7254 13.8668 47.0741 14.2155 47.0741 14.6458C47.0741 15.076 46.7254 15.4247 46.2952 15.4247Z" fill="#FF8888" stroke="white" stroke-width="0.2"></path><path d="M36.7505 34.6649H27.2059C26.7758 34.6649 26.427 34.3163 26.427 33.886C26.427 33.4557 26.7758 33.1071 27.2059 33.1071H36.7505C37.1807 33.1071 37.5294 33.4557 37.5294 33.886C37.5294 34.3163 37.1808 34.6649 36.7505 34.6649Z" fill="#FF8888" stroke="white" stroke-width="0.2"></path><path d="M46.2952 30.1534H27.2059C26.7758 30.1534 26.427 29.8048 26.427 29.3745C26.427 28.9442 26.7758 28.5956 27.2059 28.5956H46.2952C46.7254 28.5956 47.0741 28.9442 47.0741 29.3745C47.0741 29.8048 46.7254 30.1534 46.2952 30.1534Z" fill="#FF8888" stroke="white" stroke-width="0.2"></path><path d="M36.7505 49.3939H27.2059C26.7758 49.3939 26.427 49.0453 26.427 48.615C26.427 48.1847 26.7758 47.8361 27.2059 47.8361H36.7505C37.1807 47.8361 37.5294 48.1847 37.5294 48.615C37.5294 49.0453 37.1808 49.3939 36.7505 49.3939Z" fill="#FF8888" stroke="white" stroke-width="0.2"></path><path d="M46.2952 44.8824H27.2059C26.7758 44.8824 26.427 44.5338 26.427 44.1035C26.427 43.6732 26.7758 43.3246 27.2059 43.3246H46.2952C46.7254 43.3246 47.0741 43.6732 47.0741 44.1035C47.0741 44.5338 46.7254 44.8824 46.2952 44.8824Z" fill="#FF8888" stroke="white" stroke-width="0.2"></path><path d="M37.5999 8.17941H22.4002C21.0108 8.17941 19.8802 7.04891 19.8802 5.65945V2.62009C19.8802 2.62008 19.8802 2.62008 19.8802 2.62008C19.8803 1.23061 21.0108 0.1 22.4002 0.1H37.5998C38.9892 0.1 40.1199 1.23062 40.1199 2.62008V5.65945C40.1199 7.04891 38.9894 8.17941 37.5999 8.17941ZM22.4002 1.65781C21.8696 1.65781 21.438 2.08942 21.438 2.62008V5.65945C21.438 6.19013 21.8696 6.6216 22.4002 6.6216H37.5998C38.1304 6.6216 38.5621 6.19 38.5621 5.65945V2.62008C38.5621 2.08929 38.1304 1.65781 37.5998 1.65781H22.4002Z" fill="#FF8888" stroke="white" stroke-width="0.2"></path><path d="M19.0918 21.1141H15.1856C13.9397 21.1141 12.9259 20.1003 12.9259 18.8544V14.9483C12.9259 13.7024 13.9397 12.6886 15.1856 12.6886H19.0918C20.3377 12.6886 21.3515 13.7024 21.3515 14.9483V18.8545C21.3515 20.1003 20.3377 21.1141 19.0918 21.1141ZM15.1856 14.2464C14.7985 14.2464 14.4837 14.5612 14.4837 14.9483V18.8545C14.4837 19.2416 14.7985 19.5564 15.1856 19.5564H19.0918C19.4789 19.5564 19.7937 19.2416 19.7937 18.8545V14.9483C19.7937 14.5612 19.4789 14.2464 19.0918 14.2464H15.1856Z" fill="#FF8888" stroke="white" stroke-width="0.2"></path><path d="M19.0918 35.843H15.1856C13.9397 35.843 12.9259 34.8292 12.9259 33.5833V29.6771C12.9259 28.4312 13.9397 27.4174 15.1856 27.4174H19.0918C20.3377 27.4174 21.3515 28.4312 21.3515 29.6771V33.5833C21.3515 34.8292 20.3377 35.843 19.0918 35.843ZM15.1856 28.9752C14.7985 28.9752 14.4837 29.29 14.4837 29.6771V33.5833C14.4837 33.9704 14.7985 34.2852 15.1856 34.2852H19.0918C19.4789 34.2852 19.7937 33.9704 19.7937 33.5833V29.6771C19.7937 29.29 19.4789 28.9752 19.0918 28.9752H15.1856Z" fill="#FF8888" stroke="white" stroke-width="0.2"></path><path d="M19.0918 50.5718H15.1856C13.9397 50.5718 12.9259 49.5581 12.9259 48.312V44.406C12.9259 43.1599 13.9397 42.1461 15.1856 42.1461H19.0918C20.3377 42.1461 21.3515 43.1599 21.3515 44.406V48.312C21.3515 49.5581 20.3377 50.5718 19.0918 50.5718ZM15.1856 43.7041C14.7985 43.7041 14.4837 44.019 14.4837 44.4061V48.3122C14.4837 48.6992 14.7985 49.0142 15.1856 49.0142H19.0918C19.479 49.0142 19.7937 48.6992 19.7937 48.3122V44.4061C19.7937 44.019 19.479 43.7041 19.0918 43.7041H15.1856Z" fill="#FF8888" stroke="white" stroke-width="0.2"></path><path d="M48.6974 59.9001H11.3027C9.25835 59.9001 7.59512 58.2369 7.59512 56.1926V7.06841C7.59512 5.02423 9.25847 3.36099 11.3027 3.36099H16.5696C16.9998 3.36099 17.3486 3.70962 17.3486 4.13989C17.3486 4.57016 16.9998 4.9188 16.5696 4.9188H11.3027C10.1172 4.9188 9.15293 5.88302 9.15293 7.06841V56.1925C9.15293 57.378 10.1173 58.3422 11.3027 58.3422H48.6974C49.8829 58.3422 50.8471 57.3779 50.8471 56.1925V7.06841C50.8471 5.8829 49.8828 4.9188 48.6974 4.9188H43.4304C43.0003 4.9188 42.6515 4.57016 42.6515 4.13989C42.6515 3.70962 43.0003 3.36099 43.4304 3.36099H48.6974C50.7417 3.36099 52.405 5.02422 52.405 7.06841V56.1925C52.405 58.2369 50.7416 59.9001 48.6974 59.9001Z" fill="#FF8888" stroke="white" stroke-width="0.2"></path></g><defs><clipPath id="clip0"><rect width="60" height="60" fill="white"></rect></clipPath></defs></svg>