<svg xmlns="http://www.w3.org/2000/svg" width="60" height="60" viewBox="0 0 60 60" fill="none"><path d="M16.7635 10.4243L16.6909 10.424C16.5672 10.4116 16.4486 10.366 16.3481 10.2913C16.2281 10.2022 16.1401 10.0766 16.0975 9.93335C16.0549 9.79008 16.0599 9.63686 16.1118 9.49666C16.1636 9.35646 16.2595 9.23685 16.385 9.15575L16.6611 8.97802C16.8157 8.88261 17.0017 8.85189 17.1788 8.89254C17.3561 8.93326 17.5103 9.04229 17.6078 9.19597C17.7053 9.34965 17.7382 9.53558 17.6994 9.71339C17.6607 9.89115 17.5534 10.0465 17.4009 10.1456C17.4008 10.1457 17.4008 10.1457 17.4007 10.1457L17.1405 10.3137L17.1404 10.3138C17.0282 10.3864 16.8972 10.4248 16.7635 10.4243Z" fill="#FF8888" stroke="white" stroke-width="0.21"></path><path d="M29.9988 5.10505L29.999 5.10505C35.8613 5.10482 41.5357 7.17339 46.0224 10.9464C50.5092 14.7193 53.5206 19.9546 54.5261 25.7301C55.5316 31.5055 54.4667 37.4505 51.519 42.5178C48.5713 47.5851 43.9299 51.4496 38.4125 53.4306C32.895 55.4115 26.8555 55.3819 21.3578 53.3468C15.86 51.3117 11.2569 47.4017 8.3591 42.3057C5.46134 37.2097 4.45492 31.2545 5.51711 25.4893C6.57931 19.724 9.64198 14.5185 14.1656 10.7898L14.1656 10.7898L14.1669 10.7887C14.2367 10.7293 14.3176 10.6843 14.405 10.6564C14.4923 10.6286 14.5843 10.6183 14.6756 10.6264C14.7669 10.6344 14.8558 10.6605 14.9369 10.7032C15.018 10.7459 15.0899 10.8043 15.1482 10.875C15.2066 10.9457 15.2503 11.0273 15.2768 11.115C15.3033 11.2028 15.3121 11.295 15.3026 11.3861C15.2931 11.4773 15.2656 11.5657 15.2217 11.6462C15.1778 11.7266 15.1182 11.7975 15.0466 11.8548L15.0466 11.8548L15.0453 11.8558C10.4556 15.6451 7.4713 21.032 6.69293 26.9327C5.91456 32.8333 7.39988 38.8099 10.85 43.6596C14.3002 48.5094 19.4591 51.8725 25.2887 53.0723C31.1183 54.272 37.186 53.2194 42.2708 50.1261C47.3557 47.0328 51.0803 42.1285 52.6952 36.4C54.3102 30.6715 53.6955 24.5439 50.9751 19.2502C48.2546 13.9566 43.6302 9.88966 38.0323 7.86786C32.4349 5.84622 26.2795 6.01939 20.8046 8.35252C20.6372 8.41871 20.4505 8.41698 20.2843 8.34766C20.1178 8.27819 19.985 8.14632 19.9144 7.98024C19.8438 7.81416 19.8409 7.62705 19.9064 7.45889C19.9718 7.2911 20.1001 7.15546 20.2639 7.08082C23.3419 5.77072 26.6536 5.09858 29.9988 5.10505Z" fill="#FF8888" stroke="white" stroke-width="0.21"></path><path d="M29.0978 37.7887C28.3568 37.5941 27.6973 37.1652 27.2186 36.5646C26.7173 35.9358 26.4437 35.1558 26.4424 34.3516L29.0978 37.7887ZM29.0978 37.7887V37.8146H29.2028L29.2264 37.7122C29.2186 37.7104 29.2107 37.7086 29.2028 37.7067V30.7275C27.9905 30.5393 26.8853 29.9238 26.0871 28.9921C25.2888 28.0604 24.8501 26.8739 24.8501 25.647C24.8501 24.4202 25.2888 23.2337 26.0871 22.302C26.8853 21.3703 27.9905 20.7548 29.2028 20.5666L29.0978 37.7887ZM30.6902 20.5666V20.6564L30.7789 20.6703C31.9655 20.8569 33.0468 21.4605 33.8283 22.3728C34.6097 23.2852 35.0402 24.4463 35.0423 25.6475C35.0422 25.8308 34.9694 26.0065 34.8398 26.1361C34.7102 26.2657 34.5344 26.3385 34.3511 26.3385C34.1678 26.3385 33.992 26.2657 33.8624 26.1361C33.7328 26.0065 33.66 25.8307 33.66 25.6474L33.66 25.6472C33.6586 24.8194 33.3771 24.0165 32.8612 23.3691C32.3452 22.7217 31.6254 22.2681 30.8188 22.0821L30.6902 22.0524V22.1844V29.2715V29.3614L30.7791 29.3752C31.9667 29.5596 33.0492 30.1625 33.8312 31.0752C34.6131 31.9879 35.0429 33.1501 35.0429 34.3519C35.0429 35.5538 34.6131 36.716 33.8312 37.6286C33.0492 38.5413 31.9667 39.1443 30.7791 39.3286L30.6902 39.3424V39.4324V42.6851C30.6902 42.8684 30.6173 43.0442 30.4877 43.1739C30.3581 43.3035 30.1823 43.3763 29.999 43.3763C29.8157 43.3763 29.6399 43.3035 29.5103 43.1739C29.3807 43.0442 29.3078 42.8684 29.3078 42.6851V39.4324V39.3426L29.2191 39.3286C28.0323 39.1422 26.9509 38.5386 26.1693 37.6263C25.3877 36.714 24.9572 35.5528 24.9551 34.3514L24.8501 34.3516H24.9551C24.9551 34.1683 25.0279 33.9925 25.1575 33.8629L25.0833 33.7886L25.1575 33.8629C25.2872 33.7333 25.463 33.6604 25.6463 33.6604C25.8296 33.6604 26.0054 33.7333 26.135 33.8629L26.2092 33.7886L26.135 33.8629C26.2646 33.9925 26.3374 34.1683 26.3374 34.3516L26.3374 34.3518C26.3388 35.1796 26.6204 35.9827 27.1365 36.63C27.6525 37.2774 28.3725 37.731 29.1793 37.9169L29.3078 37.9465V37.8146V30.7275V30.6375L29.2189 30.6237C28.0313 30.4394 26.9488 29.8365 26.1668 28.9238C25.3849 28.0111 24.9551 26.8489 24.9551 25.647C24.9551 24.4452 25.3849 23.283 26.1668 22.3703C26.9488 21.4576 28.0313 20.8547 29.2189 20.6704L29.3078 20.6566V20.5666V17.3145C29.3078 17.1312 29.3807 16.9554 29.5103 16.8257C29.6399 16.6961 29.8157 16.6233 29.999 16.6233C30.1823 16.6233 30.3581 16.6961 30.4877 16.8257C30.6173 16.9554 30.6902 17.1312 30.6902 17.3145V20.5666ZM26.3374 25.6472L26.3374 25.6476C26.3395 26.475 26.6215 27.2774 27.1374 27.9242C27.6534 28.571 28.373 29.0242 29.1793 29.2101L29.3078 29.2397V29.1078V22.1844V22.0525L29.1793 22.0821C28.3725 22.268 27.6525 22.7216 27.1365 23.3689C26.6204 24.0163 26.3388 24.8193 26.3374 25.6472ZM30.6902 37.8146V37.9465L30.8188 37.9169C31.6253 37.7309 32.3451 37.2773 32.8609 36.6301C33.3768 35.9829 33.6585 35.1801 33.66 34.3524L33.66 34.352C33.658 33.5246 33.3763 32.7221 32.8604 32.0752C32.3446 31.4283 31.625 30.9749 30.8188 30.7889L30.6902 30.7592V30.8912V37.8146Z" fill="#FF8888" stroke="white" stroke-width="0.21"></path><circle cx="30" cy="30" r="18.5" stroke="#FF8888"></circle></svg>