<svg xmlns="http://www.w3.org/2000/svg" width="60" height="60" viewBox="0 0 60 60" fill="none"><path d="M43.85 12.15V12V8.00019C43.8467 5.32266 41.6774 3.15337 38.9999 3.15H21.0001C18.3226 3.15337 16.1533 5.32266 16.15 8.00019V12V12.15H16H3C1.4261 12.15 0.15 13.4261 0.15 15V37.2594C0.156186 38.4647 0.915692 39.5367 2.05042 39.9417L2.15 39.9773V40.083V54C2.15 55.5739 3.4261 56.85 5 56.85H55C56.5739 56.85 57.85 55.5739 57.85 54V40.084V39.9783L57.9495 39.9427C59.0842 39.5373 59.8441 38.4649 59.85 37.2598C59.85 37.2595 59.85 37.2593 59.85 37.2591M43.85 12.15L57 12C58.6567 12 60 13.3433 60 15V37.2598L59.85 37.2591M43.85 12.15H44H57C58.5739 12.15 59.85 13.4261 59.85 15L59.85 37.2591M43.85 12.15L59.85 37.2591M1.85 37.2596C1.84944 37.8335 2.27226 38.3198 2.83998 38.3995L2.84035 38.3996L25.9795 41.5905L26.15 41.614V41.4419V40C26.15 38.4261 27.4261 37.15 29 37.15H31C32.5739 37.15 33.85 38.4261 33.85 40V41.4419V41.614L34.0205 41.5905L57.1606 38.3996L57.1611 38.3995L58 37.2598H58.15V37.2596V15C58.15 14.3649 57.6351 13.85 57 13.85H3C2.36491 13.85 1.85 14.3649 1.85 15V37.2596ZM1.85 37.2596L2 37.2598H1.85V37.2596ZM42 12.15H42.15V12V8C42.15 6.26042 40.7396 4.85 39 4.85H21C19.2604 4.85 17.85 6.26042 17.85 8V12V12.15H18H20H20.15V12V8C20.15 7.5306 20.5306 7.15 21 7.15H39C39.4694 7.15 39.85 7.5306 39.85 8V12V12.15H40H42ZM38 12.15H38.15V12V9V8.85H38H22H21.85V9V12V12.15H22H38ZM4.02049 40.2782L3.85 40.2547V40.4268V54C3.85 54.6351 4.36491 55.15 5 55.15H55C55.6351 55.15 56.15 54.6351 56.15 54V40.4268V40.2547L55.9795 40.2782L33.9795 43.3123L33.85 43.3302V43.4609V46C33.85 47.5739 32.5739 48.85 31 48.85H29C27.4261 48.85 26.15 47.5739 26.15 46V43.4609V43.3302L26.0205 43.3123L4.02049 40.2782ZM31 47.15C31.6351 47.15 32.15 46.6351 32.15 46V40C32.15 39.3649 31.6351 38.85 31 38.85H29C28.3649 38.85 27.85 39.3649 27.85 40V46C27.85 46.6351 28.3649 47.15 29 47.15H31Z" fill="#FF8888" stroke="white" stroke-width="0.3"></path><path d="M57.85 37.2599V37.2598V15C57.85 14.5306 57.4694 14.15 57 14.15H3C2.5306 14.15 2.15 14.5306 2.15 15V37.2598V37.2599C2.14959 37.6839 2.46193 38.0433 2.88133 38.1024L57.85 37.2599ZM57.85 37.2599C57.8504 37.6836 57.5388 38.043 57.1194 38.1024C57.1193 38.1024 57.1192 38.1024 57.1191 38.1025L34.15 41.2698V40C34.15 38.2604 32.7396 36.85 31 36.85H29C27.2604 36.85 25.85 38.2604 25.85 40V41.2698L2.8817 38.1024L57.85 37.2599ZM44 8C43.9966 5.23975 41.7603 3.00342 39 3M21 3C18.2397 3.00342 16.0034 5.23975 16 8M3 12C1.34326 12 0 13.3433 0 15M0 37.2598C0.00634765 38.5283 0.805664 39.6567 2 40.083M2 54C2 55.6567 3.34326 57 5 57M55 57C56.6567 57 58 55.6567 58 54M58 40.084C59.1943 39.6572 59.9941 38.5283 60 37.2598M60 15C60 13.3433 58.6567 12 57 12M18.15 8C18.15 6.4261 19.4261 5.15 21 5.15H39C40.5739 5.15 41.85 6.4261 41.85 8V11.85H40.15V8C40.15 7.36491 39.6351 6.85 39 6.85H21C20.3649 6.85 19.85 7.36491 19.85 8V11.85H18.15V8ZM37.85 11.85H22.15V9.15H37.85V11.85ZM55.85 54C55.85 54.4694 55.4694 54.85 55 54.85H5C4.5306 54.85 4.15 54.4694 4.15 54V40.5989L25.85 43.5917V46C25.85 47.7396 27.2604 49.15 29 49.15H31C32.7396 49.15 34.15 47.7396 34.15 46V43.5917L55.85 40.5989V54ZM31.85 46C31.85 46.4694 31.4694 46.85 31 46.85H29C28.5306 46.85 28.15 46.4694 28.15 46V40C28.15 39.5306 28.5306 39.15 29 39.15H31C31.4694 39.15 31.85 39.5306 31.85 40V46Z" fill="white" stroke="white" stroke-width="0.3"></path></svg>