<svg xmlns="http://www.w3.org/2000/svg" width="60" height="60" viewBox="0 0 60 60" fill="none"><g clip-path="url(#clip0)"><path d="M1.01917 29.8867H1.0191H0.985875C0.490254 29.8687 0.102469 29.453 0.119069 28.9571C0.346067 22.4088 2.71832 16.1164 6.87095 11.048C17.3335 -1.72173 36.167 -3.59193 48.9366 6.87058L49.1 7.00444V6.79322V1.00136C49.1 0.504347 49.503 0.101379 50 0.101379C50.497 0.101379 50.9 0.504347 50.9 1.00136V8.99499C50.8954 9.03058 50.8883 9.06578 50.8787 9.10031L50.8759 9.11023L50.8752 9.12051C50.8703 9.1942 50.8557 9.26688 50.832 9.33689C50.8015 9.40233 50.7627 9.46376 50.7167 9.51968L50.7106 9.5271L50.706 9.53556C50.6903 9.56461 50.6728 9.5928 50.6536 9.62003L50.6512 9.62175L50.6455 9.62721C50.5812 9.68933 50.5074 9.74104 50.4271 9.78031L50.427 9.78019L50.4224 9.78274C50.3999 9.79523 50.3802 9.8118 50.3712 9.81896C50.3655 9.82348 50.3619 9.82618 50.359 9.82815C50.3587 9.82837 50.3584 9.82856 50.3581 9.82873C50.316 9.84076 50.2732 9.84991 50.2297 9.85618L50.2212 9.8574L50.2131 9.86005C50.1472 9.88146 50.079 9.89521 50.0098 9.90115H50H42.0002C41.5032 9.90115 41.1002 9.49818 41.1002 9.00117C41.1002 8.50416 41.5032 8.1012 42.0002 8.1012H47.3221H47.6107L47.3839 7.92263C42.694 4.22994 36.9499 2.12688 30.9843 1.91802C15.475 1.37522 2.46206 13.5079 1.91914 29.0172L1.91914 29.0173C1.9026 29.5024 1.50446 29.887 1.01917 29.8867Z" fill="#FF8888" stroke="white" stroke-width="0.2"></path><path d="M9.00504 48.6756L9.00512 48.6757C9.64754 49.3992 10.3266 50.0893 11.0396 50.7433C11.3888 51.0763 11.4133 51.6255 11.095 51.9883C10.7672 52.3616 10.1992 52.3989 9.82561 52.0717C9.06508 51.3758 8.34052 50.6415 7.65469 49.8718C7.32441 49.4989 7.35888 48.929 7.73174 48.5986C8.10465 48.2683 8.67468 48.3027 9.00504 48.6756Z" fill="#FF8888" stroke="white" stroke-width="0.2"></path><path d="M20.9816 56.6218L20.9816 56.6218C21.4527 56.7811 21.7053 57.2921 21.5459 57.763L21.5459 57.763C21.3866 58.2339 20.8756 58.4866 20.4047 58.3273C19.4273 57.9966 18.4678 57.6147 17.5305 57.1832L17.5306 57.1832L17.5276 57.1819C17.5122 57.1755 17.4968 57.1683 17.4813 57.1607C17.036 56.94 16.8537 56.4001 17.0743 55.9547C17.2949 55.5094 17.8349 55.3271 18.2803 55.5477L18.2803 55.5478L18.283 55.549C19.1634 55.9531 20.0641 56.3112 20.9816 56.6218Z" fill="#FF8888" stroke="white" stroke-width="0.2"></path><path d="M14.7918 55.7493C13.9051 55.2238 13.0459 54.6534 12.2174 54.04L12.2174 54.04L12.2147 54.0381C12.1998 54.0278 12.185 54.0168 12.1699 54.0049C11.7798 53.697 11.713 53.1312 12.0209 52.741C12.3288 52.3507 12.8947 52.2839 13.2849 52.5918L13.2849 52.5918L13.2875 52.5938C14.0521 53.1581 14.8441 53.6842 15.6608 54.1702V54.1713L15.7098 54.2003C16.1375 54.4538 16.2789 55.006 16.0253 55.4339L16.0253 55.4339C15.7718 55.8616 15.2195 56.0028 14.7918 55.7493ZM14.7918 55.7493L14.7408 55.8354L14.7918 55.7493Z" fill="#FF8888" stroke="white" stroke-width="0.2"></path><path d="M4.05276 44.8695L4.05273 44.8694C3.80419 44.4382 3.95226 43.8871 4.38352 43.6385C4.81476 43.39 5.36579 43.5381 5.61436 43.9692C6.09686 44.809 6.62174 45.6237 7.18724 46.4099C7.46061 46.8074 7.37193 47.3498 6.9861 47.6395L7.04615 47.7194L6.9861 47.6395C6.58889 47.9377 6.02518 47.8578 5.72658 47.461C5.12482 46.6263 4.56613 45.7613 4.05276 44.8695Z" fill="#FF8888" stroke="white" stroke-width="0.2"></path><path d="M4.37978 41.751V41.751C4.37978 41.6256 4.35346 41.5015 4.30271 41.3869L4.29707 41.3741L4.298 41.3739L4.29792 41.3736C3.90632 40.491 3.56054 39.5887 3.26207 38.6704L3.26057 38.6658L3.26069 38.6657C3.13019 38.1861 2.63554 37.9031 2.15598 38.0337L2.15596 38.0337C1.67641 38.1642 1.39338 38.6588 1.52393 39.1384C1.53165 39.1665 1.54056 39.1941 1.55077 39.2211L1.55246 39.2256L1.55235 39.2256C1.8704 40.2074 2.23903 41.1722 2.65662 42.1159L4.37978 41.751ZM4.37978 41.751C4.37989 42.2481 3.97714 42.6512 3.48013 42.6514H3.48011M4.37978 41.751L3.48011 42.6514M3.48011 42.6514C3.12384 42.6516 2.80099 42.4417 2.65664 42.1159L3.48011 42.6514Z" fill="#FF8888" stroke="white" stroke-width="0.2"></path><path d="M1.81925 36.9287L1.81925 36.9287L0.26757 33.1829C0.21517 32.6884 0.573608 32.2449 1.06815 32.1925C1.56273 32.1401 2.00622 32.4985 2.05864 32.9931L2.05864 32.9931C2.16088 33.9566 2.31228 34.9142 2.51223 35.8621L2.51224 35.8622C2.61495 36.3479 2.3049 36.8252 1.81925 36.9287ZM1.81718 36.9291C1.33155 37.031 0.854878 36.7205 0.751949 36.2347L0.654246 36.2554L0.751948 36.2347C0.538293 35.2265 0.37671 34.2079 0.267575 33.183L1.81718 36.9291Z" fill="#FF8888" stroke="white" stroke-width="0.2"></path><path d="M57.2861 36.7597C57.4056 36.2776 57.8929 35.9836 58.375 36.1025L58.3786 36.1033C58.8602 36.2234 59.154 36.7106 59.0349 37.1926C58.787 38.1933 58.4876 39.1808 58.1379 40.1506L58.1379 40.1506C57.9694 40.6184 57.4537 40.861 56.9859 40.6924C56.5181 40.5239 56.2756 40.0082 56.4441 39.5404L56.4441 39.5404C56.7725 38.6286 57.0535 37.7005 57.2861 36.7597Z" fill="#FF8888" stroke="white" stroke-width="0.2"></path><path d="M26.6396 57.8993L26.6397 57.8993C27.0918 57.953 27.4324 58.3359 27.4333 58.791C27.4343 59.2881 27.0323 59.6919 26.5353 59.6929L26.5352 59.6929C26.499 59.693 26.4631 59.691 26.4276 59.6867L26.4273 59.6866C25.4034 59.5648 24.3864 59.3901 23.3806 59.1634C22.8957 59.0538 22.5915 58.5719 22.7011 58.087C22.8107 57.6021 23.2926 57.2979 23.7775 57.4075L23.7775 57.4075C24.7225 57.6207 25.6777 57.7847 26.6396 57.8993Z" fill="#FF8888" stroke="white" stroke-width="0.2"></path><path d="M54.2263 45.9964L54.2263 45.9964C54.6426 46.2446 55.1808 46.1183 55.4433 45.7111C55.9855 44.8344 56.482 43.9301 56.9308 43.002L56.9308 43.0019C57.1476 42.5547 56.9606 42.0163 56.5133 41.7996L56.5569 41.7096M54.2263 45.9964L55.3119 42.2181C55.5283 41.7709 56.0661 41.5836 56.5135 41.7996L56.5569 41.7096M54.2263 45.9964C53.7995 45.7422 53.6595 45.1903 53.9134 44.7634M54.2263 45.9964L53.9134 44.7634M56.5569 41.7096C57.0539 41.9504 57.2617 42.5485 57.0208 43.0455L55.2218 42.1746C55.4623 41.6777 56.0598 41.4696 56.5569 41.7096ZM53.9134 44.7634C54.4234 43.9398 54.8901 43.0902 55.3119 42.2181L53.9134 44.7634Z" fill="#FF8888" stroke="white" stroke-width="0.2"></path><path d="M52.2757 47.1331L52.2759 47.1328C52.5852 46.7437 53.1514 46.6791 53.5404 46.9885C53.9294 47.2978 53.994 47.864 53.6847 48.2531L53.6838 48.2542C53.0535 49.0701 52.3821 49.8535 51.6724 50.6014C51.3297 50.9617 50.7597 50.9759 50.3994 50.6333C50.0391 50.2906 50.0248 49.7205 50.3675 49.3602L50.3675 49.3602C50.9687 48.7278 51.5402 48.0678 52.08 47.3824V47.392L52.2598 47.1535C52.2652 47.1464 52.2704 47.1396 52.2757 47.1331Z" fill="#FF8888" stroke="white" stroke-width="0.2"></path><path d="M59.0132 30.1476L59.0117 30.1476C58.5236 30.1226 58.1077 30.4981 58.0828 30.9862C58.0824 30.9954 58.082 31.0048 58.0818 31.0141L58.0818 31.0152L58.0817 31.0152C58.0478 31.9836 57.9636 32.9496 57.8299 33.9093C57.7621 34.401 58.1052 34.8547 58.5967 34.9235L58.5972 34.9236C58.6388 34.9297 58.6806 34.9327 58.7225 34.9326L58.7226 34.9326C59.1712 34.9319 59.5508 34.601 59.6127 34.1568L59.0132 30.1476ZM59.0132 30.1476C59.5098 30.1652 59.898 30.5817 59.8808 31.0782M59.0132 30.1476L59.8808 31.0782M58.7228 35.0326C58.6759 35.0327 58.6292 35.0293 58.5828 35.0226L58.7228 35.0326ZM58.7228 35.0326C59.2211 35.0318 59.643 34.6642 59.7118 34.1706L58.7228 35.0326ZM59.8808 31.0782C59.8441 32.1083 59.7546 33.1359 59.6127 34.1568L59.8808 31.0782Z" fill="#FF8888" stroke="white" stroke-width="0.2"></path><path d="M48.2649 51.3592L48.3 51.3292V51.3276C48.6771 51.036 49.2208 51.0888 49.534 51.4551L49.534 51.4551C49.8571 51.8329 49.8127 52.401 49.435 52.7241L49.4349 52.7241C48.6502 53.3964 47.8319 54.0284 46.9831 54.6178C46.5732 54.9011 46.0111 54.7986 45.7278 54.3887C45.4445 53.9787 45.547 53.4167 45.9569 53.1333C46.7561 52.5818 47.5264 51.9896 48.2649 51.3592Z" fill="#FF8888" stroke="white" stroke-width="0.2"></path><path d="M34.6064 58.6501L34.6064 58.6501C34.5125 58.162 34.832 57.6903 35.3201 57.5963C36.2711 57.4145 37.2119 57.1836 38.1389 56.9043C38.6009 56.778 39.0811 57.0357 39.231 57.4907L39.231 57.4907C39.3865 57.9623 39.1304 58.4707 38.6591 58.6268C37.6726 58.925 36.6711 59.1713 35.6589 59.3648C35.6026 59.3752 35.5456 59.3803 35.4887 59.3801L35.4885 59.3801C35.0576 59.3793 34.6877 59.0732 34.6064 58.6501Z" fill="#FF8888" stroke="white" stroke-width="0.2"></path><path d="M32.444 57.9996L32.5595 57.9898C33.0258 57.9978 33.414 58.3646 33.4414 58.8378C33.4701 59.334 33.091 59.7595 32.5948 59.7881L32.5947 59.788L32.5919 59.7883C31.7447 59.861 30.8716 59.8999 30.0006 59.8999H29.5071C29.0112 59.8905 28.6164 59.4814 28.6245 58.9854C28.6505 58.4943 29.0525 58.1073 29.5443 58.1H30.0006C30.8191 58.1 31.6409 58.0679 32.444 57.9996Z" fill="#FF8888" stroke="white" stroke-width="0.2"></path><path d="M43.4882 54.6569L43.4881 54.6565C43.9239 54.4183 44.4704 54.5782 44.7088 55.0137L44.7088 55.0138C44.9477 55.4497 44.7879 55.9967 44.352 56.2355L44.352 56.2355C43.4481 56.7308 42.5194 57.1792 41.5693 57.579L41.5693 57.579L41.5678 57.5797C41.5613 57.5825 41.555 57.5852 41.5487 57.5877L41.5483 57.5879C41.0877 57.7746 40.5628 57.5526 40.376 57.0921C40.1893 56.6315 40.4113 56.1067 40.8718 55.9199L40.8718 55.9199L40.873 55.9194C41.7658 55.5436 42.6386 55.1222 43.4882 54.6569Z" fill="#FF8888" stroke="white" stroke-width="0.2"></path><path d="M49.0489 31.0061L49.0546 30.9007H48.9491H46.0001C45.5031 30.9007 45.1002 30.4977 45.1002 30.0007C45.1002 29.5037 45.5031 29.1008 46.0001 29.1008H48.9491H49.0546L49.0489 28.9954C48.5267 19.255 40.7462 11.4745 31.0058 10.9523L30.9005 10.9467V11.0522V14.0011C30.9005 14.4981 30.4975 14.9011 30.0005 14.9011C29.5035 14.9011 29.1005 14.4981 29.1005 14.0011V11.0522V10.9467L28.9952 10.9523C19.2547 11.4745 11.4743 19.255 10.9521 28.9954L10.9464 29.1008H11.0519H14.0009C14.4979 29.1008 14.9008 29.5037 14.9008 30.0007C14.9008 30.4977 14.4979 30.9007 14.0009 30.9007H11.0519H10.9464L10.9521 31.0061C11.4743 40.7465 19.2547 48.5269 28.9952 49.0492L29.1005 49.0548V48.9493V46.0004C29.1005 45.5034 29.5035 45.1004 30.0005 45.1004C30.4975 45.1004 30.9005 45.5034 30.9005 46.0004V48.9493V49.0548L31.0058 49.0492C40.7462 48.5269 48.5267 40.7465 49.0489 31.0061ZM9.10098 30.0007C9.10098 18.4583 18.458 9.10125 30.0004 9.10122C41.5375 9.11444 50.887 18.4638 50.9 30.0009C50.9 41.5433 41.543 50.9003 30.0005 50.9003C18.458 50.9003 9.10098 41.5432 9.10098 30.0007Z" fill="#FF8888" stroke="white" stroke-width="0.2"></path><path d="M46.0001 31.1007H48.8433C48.2784 40.6547 40.6545 48.2786 31.1005 48.8435V46.0004C31.1005 45.3929 30.608 44.9004 30.0005 44.9004C29.393 44.9004 28.9005 45.3929 28.9005 46.0004V48.8435C19.3465 48.2786 11.7226 40.6547 11.1577 31.1007H14.0009C14.6083 31.1007 15.1008 30.6082 15.1008 30.0007C15.1008 29.3933 14.6083 28.9008 14.0009 28.9008H11.1577C11.7226 19.3468 19.3465 11.7229 28.9005 11.158V14.0011C28.9005 14.6086 29.393 15.1011 30.0005 15.1011C30.608 15.1011 31.1005 14.6086 31.1005 14.0011V11.158C40.6545 11.7229 48.2784 19.3468 48.8433 28.9008H46.0001C45.3927 28.9008 44.9002 29.3933 44.9002 30.0007C44.9002 30.6082 45.3927 31.1007 46.0001 31.1007Z" fill="white" stroke="white" stroke-width="0.2"></path><path d="M30.9004 27.1847V27.2556L30.9672 27.2791C31.7953 27.5701 32.4466 28.2212 32.7375 29.0493L32.8318 29.0162L32.7375 29.0493C33.2672 30.5567 32.4746 32.2081 30.9672 32.7378C29.4599 33.2674 27.8085 32.4748 27.2788 30.9675L27.2553 30.9006H27.1845H22.0006C21.5036 30.9006 21.1006 30.4977 21.1006 30.0007C21.1006 29.5037 21.5036 29.1007 22.0006 29.1007H27.1845H27.2549L27.2786 29.0343C27.5711 28.2157 28.2154 27.5713 29.0341 27.2789L29.1004 27.2552V27.1847V18.001C29.1004 17.5039 29.5034 17.101 30.0004 17.101C30.4974 17.101 30.9004 17.5039 30.9004 18.001V27.1847ZM28.9004 30.0007C28.9004 30.6081 29.3929 31.1006 30.0004 31.1006C30.608 31.1006 31.1004 30.6081 31.1004 30.0007C31.1004 29.3932 30.6079 28.9007 30.0004 28.9007C29.3929 28.9007 28.9004 29.3932 28.9004 30.0007Z" fill="#FF8888" stroke="white" stroke-width="0.2"></path></g><defs><clipPath id="clip0"><rect width="60" height="60" fill="white"></rect></clipPath></defs></svg>