<svg xmlns="http://www.w3.org/2000/svg" width="60" height="60" viewBox="0 0 60 60" fill="none"><g clip-path="url(#clip0)"><mask id="path-1-inside-1" fill="white"><path d="M59.6535 43.1259L49.91 33.4202C49.9079 33.4181 49.9055 33.4162 49.9034 33.4141L50.898 32.4194C51.7646 31.5528 52.242 30.4005 52.242 29.1749C52.242 27.9494 51.7646 26.797 50.898 25.9305C50.3899 25.4224 49.7951 25.076 49.1613 24.8866C49.6275 23.9425 49.7483 23.0921 49.7407 22.4452C49.7254 21.1246 49.1889 19.8694 48.2303 18.9108C47.5105 18.1911 46.609 17.7615 45.6721 17.6208C45.7639 17.2403 45.8092 16.8434 45.8038 16.4371C45.7869 15.1899 45.3012 14.0264 44.4359 13.161C43.6782 12.4034 42.7023 11.9435 41.6498 11.8396C41.7192 11.5076 41.7551 11.1644 41.753 10.8137C41.7457 9.56819 41.2516 8.36468 40.3991 7.51308C39.5339 6.64589 38.5362 6.17866 36.8599 6.17866C36.8454 6.16366 34.0027 3.32022 34.0027 3.32022C33.1361 2.45362 31.9838 1.97632 30.7582 1.97632C29.5327 1.97632 28.3805 2.45362 27.5143 3.31976C26.6863 4.14687 26.2145 5.23507 26.1736 6.39897C26.1736 6.39897 22.918 2.76909 19.4863 6.20069C18.3149 7.3721 17.9107 9.02444 18.2733 10.528C17.2418 10.6218 16.2362 11.0623 15.4484 11.8502C14.2445 13.0541 13.852 14.7657 14.2684 16.302C13.3114 16.4336 12.3881 16.8659 11.6539 17.6C10.074 19.1799 9.89039 21.6344 11.1009 23.4188C10.3255 23.6145 9.59156 24.0142 8.98617 24.6196C8.11957 25.4864 7.64227 26.6385 7.64227 27.8642C7.64227 29.0898 8.11957 30.2421 8.98617 31.1087L10.5578 32.6803L0.34711 42.8909C-0.115195 43.3533 -0.115781 44.1028 0.345821 44.5658L12.4076 56.6653C12.8627 57.1218 13.6254 57.1235 14.0825 56.669L22.271 48.5183C22.9274 47.8619 23.8352 47.5064 24.7636 47.5387L32.8989 47.8355C33.6022 47.8615 34.2996 47.7547 34.9561 47.5301L45.1071 57.6813C45.5634 58.1375 46.3269 58.1375 46.7834 57.6813L49.5459 54.9187C50.0023 54.4624 50.0023 53.6989 49.5459 53.2425C49.0895 52.786 48.326 52.7861 47.8697 53.2425L45.9452 55.167L43.7909 53.0125L54.9729 41.8305L57.1391 43.9732L55.4353 45.6768C55.0052 46.1069 54.9755 46.8178 55.3693 47.2815C55.8111 47.8017 56.6285 47.8359 57.1116 47.353L59.658 44.8065C60.1158 44.349 60.1138 43.5812 59.6535 43.1259ZM29.1901 4.99647C29.6089 4.57753 30.1659 4.3469 30.7583 4.3469C31.3507 4.3469 31.9077 4.57753 32.3268 4.99671L34.4095 7.07843C34.2343 7.20991 31.239 10.1818 31.239 10.1818L29.1901 8.13276C28.7709 7.7137 28.5402 7.15647 28.5402 6.56397C28.5401 5.97171 28.7707 5.41519 29.1901 4.99647ZM21.1627 7.87694C21.5815 7.458 22.1386 7.22726 22.731 7.22726C23.3234 7.22726 23.8805 7.458 24.2994 7.87694L31.0726 14.6501C31.4916 15.069 31.7223 15.6261 31.7223 16.2185C31.7223 16.8108 31.4916 17.368 31.0726 17.7868C30.6538 18.2057 30.0967 18.4365 29.5043 18.4365C28.9119 18.4365 28.3548 18.2057 27.936 17.7868L21.1628 11.0136C20.7438 10.5948 20.5131 10.0376 20.5131 9.44526C20.5131 8.85288 20.7437 8.29589 21.1627 7.87694ZM17.1247 13.5264C17.557 13.094 18.1252 12.8778 18.693 12.8778C19.2611 12.8778 19.8291 13.094 20.2614 13.5264L26.2289 19.4939C26.6477 19.9127 26.8785 20.4697 26.8785 21.0622C26.8785 21.6546 26.6477 22.2117 26.2288 22.6305C25.4619 23.3975 24.2692 23.4827 23.4057 22.8892C23.3196 22.7866 17.1247 16.663 17.1247 16.663C16.2599 15.7983 16.2599 14.3913 17.1247 13.5264ZM13.3303 19.2762C13.7627 18.8438 14.3306 18.6276 14.8986 18.6276C15.3084 18.6276 15.7174 18.742 16.0763 18.967C16.0763 18.967 21.6145 24.4951 21.7182 24.5819C21.97 24.948 22.1065 25.3805 22.1065 25.8344C22.1065 26.4268 21.8757 26.9838 21.4568 27.4027C21.038 27.8217 20.4809 28.0524 19.8885 28.0524C19.2961 28.0524 18.739 27.8217 18.3202 27.4027L13.3304 22.413C12.4655 21.548 12.4655 20.1411 13.3303 19.2762ZM10.6625 26.2959C11.0814 25.8769 11.6385 25.6462 12.2309 25.6462C12.8232 25.6462 13.3804 25.8769 13.7992 26.2958L16.613 29.1097C17.0319 29.5285 17.2627 30.0856 17.2627 30.678C17.2627 31.2704 17.0319 31.8275 16.613 32.2463C16.1941 32.6653 15.637 32.896 15.0446 32.896C14.4523 32.896 13.8953 32.6653 13.4763 32.2463L10.6625 29.4325C10.2436 29.0137 10.0129 28.4566 10.0129 27.8642C10.0129 27.2718 10.2436 26.7147 10.6625 26.2959ZM13.2507 54.1536L2.86008 43.7305L4.90863 41.6819L15.3217 52.095L13.2507 54.1536ZM32.9854 45.4668L24.8501 45.17C23.2658 45.1105 21.7154 45.7217 20.595 46.8423L17.0029 50.4237L6.58488 40.0058L12.264 34.3266C13.0821 34.9509 14.0631 35.2644 15.0448 35.2644C16.2198 35.2644 17.3948 34.8172 18.2893 33.9227C19.1559 33.056 19.6249 32.0323 19.6249 30.4123C21.3357 30.4123 22.2384 29.9735 23.1329 29.079C24.0757 28.1361 24.5211 26.8817 24.4702 25.6441C26.0125 25.6441 27.0105 25.2014 27.905 24.3069C28.7716 23.4403 29.2406 22.2887 29.2406 20.7966C30.852 20.7966 31.8541 20.3576 32.7486 19.4632C36.0914 16.1204 32.2737 12.4992 32.2737 12.4992L35.5866 9.18745C36.0039 8.76921 36.5605 8.53882 37.1538 8.53882C37.7471 8.53882 38.3038 8.76909 38.7225 9.18886C39.1383 9.60417 39.3789 10.2015 39.3825 10.8276C39.3862 11.4513 39.0415 12.1814 38.6148 12.608C38.3779 12.7695 38.1539 12.9537 37.9466 13.161C37.4838 13.6239 37.4838 14.3744 37.9466 14.8373C38.4095 15.3002 39.16 15.3002 39.6228 14.8373C40.0417 14.4183 40.5988 14.1876 41.1912 14.1876C41.7836 14.1876 42.3407 14.4183 42.7595 14.8373C43.1795 15.2572 43.4251 15.852 43.4334 16.4691C43.4418 17.0891 43.2959 17.5912 42.7221 18.1649C42.3709 18.3641 42.0401 18.6118 41.741 18.9108C41.2781 19.3737 41.2781 20.1242 41.741 20.5871C42.2039 21.05 42.9544 21.05 43.4173 20.5871C44.282 19.7223 45.6892 19.7223 46.5539 20.5871C46.8939 20.9269 48.4639 22.743 46.0516 25.1661C45.4406 25.6072 45.2814 25.6823 44.6038 26.1985C44.0831 26.5952 44.141 27.4119 44.6038 27.8748C45.0667 28.3376 45.8172 28.3376 46.28 27.8748C47.0529 27.1018 48.3034 26.6883 49.2217 27.6067C49.6406 28.0257 49.8714 28.5827 49.8714 29.1752C49.8714 29.7677 49.6406 30.3247 49.2217 30.7435L35.4778 44.4873C34.8216 45.1436 33.9131 45.5008 32.9854 45.4668ZM42.1146 51.3365L37.045 46.2669C37.0813 46.2324 48.2276 35.0898 48.2276 35.0898C48.2297 35.092 48.2314 35.0943 48.2337 35.0964L53.2942 40.1568L42.1146 51.3365Z"></path></mask><path d="M59.6535 43.1259L49.91 33.4202C49.9079 33.4181 49.9055 33.4162 49.9034 33.4141L50.898 32.4194C51.7646 31.5528 52.242 30.4005 52.242 29.1749C52.242 27.9494 51.7646 26.797 50.898 25.9305C50.3899 25.4224 49.7951 25.076 49.1613 24.8866C49.6275 23.9425 49.7483 23.0921 49.7407 22.4452C49.7254 21.1246 49.1889 19.8694 48.2303 18.9108C47.5105 18.1911 46.609 17.7615 45.6721 17.6208C45.7639 17.2403 45.8092 16.8434 45.8038 16.4371C45.7869 15.1899 45.3012 14.0264 44.4359 13.161C43.6782 12.4034 42.7023 11.9435 41.6498 11.8396C41.7192 11.5076 41.7551 11.1644 41.753 10.8137C41.7457 9.56819 41.2516 8.36468 40.3991 7.51308C39.5339 6.64589 38.5362 6.17866 36.8599 6.17866C36.8454 6.16366 34.0027 3.32022 34.0027 3.32022C33.1361 2.45362 31.9838 1.97632 30.7582 1.97632C29.5327 1.97632 28.3805 2.45362 27.5143 3.31976C26.6863 4.14687 26.2145 5.23507 26.1736 6.39897C26.1736 6.39897 22.918 2.76909 19.4863 6.20069C18.3149 7.3721 17.9107 9.02444 18.2733 10.528C17.2418 10.6218 16.2362 11.0623 15.4484 11.8502C14.2445 13.0541 13.852 14.7657 14.2684 16.302C13.3114 16.4336 12.3881 16.8659 11.6539 17.6C10.074 19.1799 9.89039 21.6344 11.1009 23.4188C10.3255 23.6145 9.59156 24.0142 8.98617 24.6196C8.11957 25.4864 7.64227 26.6385 7.64227 27.8642C7.64227 29.0898 8.11957 30.2421 8.98617 31.1087L10.5578 32.6803L0.34711 42.8909C-0.115195 43.3533 -0.115781 44.1028 0.345821 44.5658L12.4076 56.6653C12.8627 57.1218 13.6254 57.1235 14.0825 56.669L22.271 48.5183C22.9274 47.8619 23.8352 47.5064 24.7636 47.5387L32.8989 47.8355C33.6022 47.8615 34.2996 47.7547 34.9561 47.5301L45.1071 57.6813C45.5634 58.1375 46.3269 58.1375 46.7834 57.6813L49.5459 54.9187C50.0023 54.4624 50.0023 53.6989 49.5459 53.2425C49.0895 52.786 48.326 52.7861 47.8697 53.2425L45.9452 55.167L43.7909 53.0125L54.9729 41.8305L57.1391 43.9732L55.4353 45.6768C55.0052 46.1069 54.9755 46.8178 55.3693 47.2815C55.8111 47.8017 56.6285 47.8359 57.1116 47.353L59.658 44.8065C60.1158 44.349 60.1138 43.5812 59.6535 43.1259ZM29.1901 4.99647C29.6089 4.57753 30.1659 4.3469 30.7583 4.3469C31.3507 4.3469 31.9077 4.57753 32.3268 4.99671L34.4095 7.07843C34.2343 7.20991 31.239 10.1818 31.239 10.1818L29.1901 8.13276C28.7709 7.7137 28.5402 7.15647 28.5402 6.56397C28.5401 5.97171 28.7707 5.41519 29.1901 4.99647ZM21.1627 7.87694C21.5815 7.458 22.1386 7.22726 22.731 7.22726C23.3234 7.22726 23.8805 7.458 24.2994 7.87694L31.0726 14.6501C31.4916 15.069 31.7223 15.6261 31.7223 16.2185C31.7223 16.8108 31.4916 17.368 31.0726 17.7868C30.6538 18.2057 30.0967 18.4365 29.5043 18.4365C28.9119 18.4365 28.3548 18.2057 27.936 17.7868L21.1628 11.0136C20.7438 10.5948 20.5131 10.0376 20.5131 9.44526C20.5131 8.85288 20.7437 8.29589 21.1627 7.87694ZM17.1247 13.5264C17.557 13.094 18.1252 12.8778 18.693 12.8778C19.2611 12.8778 19.8291 13.094 20.2614 13.5264L26.2289 19.4939C26.6477 19.9127 26.8785 20.4697 26.8785 21.0622C26.8785 21.6546 26.6477 22.2117 26.2288 22.6305C25.4619 23.3975 24.2692 23.4827 23.4057 22.8892C23.3196 22.7866 17.1247 16.663 17.1247 16.663C16.2599 15.7983 16.2599 14.3913 17.1247 13.5264ZM13.3303 19.2762C13.7627 18.8438 14.3306 18.6276 14.8986 18.6276C15.3084 18.6276 15.7174 18.742 16.0763 18.967C16.0763 18.967 21.6145 24.4951 21.7182 24.5819C21.97 24.948 22.1065 25.3805 22.1065 25.8344C22.1065 26.4268 21.8757 26.9838 21.4568 27.4027C21.038 27.8217 20.4809 28.0524 19.8885 28.0524C19.2961 28.0524 18.739 27.8217 18.3202 27.4027L13.3304 22.413C12.4655 21.548 12.4655 20.1411 13.3303 19.2762ZM10.6625 26.2959C11.0814 25.8769 11.6385 25.6462 12.2309 25.6462C12.8232 25.6462 13.3804 25.8769 13.7992 26.2958L16.613 29.1097C17.0319 29.5285 17.2627 30.0856 17.2627 30.678C17.2627 31.2704 17.0319 31.8275 16.613 32.2463C16.1941 32.6653 15.637 32.896 15.0446 32.896C14.4523 32.896 13.8953 32.6653 13.4763 32.2463L10.6625 29.4325C10.2436 29.0137 10.0129 28.4566 10.0129 27.8642C10.0129 27.2718 10.2436 26.7147 10.6625 26.2959ZM13.2507 54.1536L2.86008 43.7305L4.90863 41.6819L15.3217 52.095L13.2507 54.1536ZM32.9854 45.4668L24.8501 45.17C23.2658 45.1105 21.7154 45.7217 20.595 46.8423L17.0029 50.4237L6.58488 40.0058L12.264 34.3266C13.0821 34.9509 14.0631 35.2644 15.0448 35.2644C16.2198 35.2644 17.3948 34.8172 18.2893 33.9227C19.1559 33.056 19.6249 32.0323 19.6249 30.4123C21.3357 30.4123 22.2384 29.9735 23.1329 29.079C24.0757 28.1361 24.5211 26.8817 24.4702 25.6441C26.0125 25.6441 27.0105 25.2014 27.905 24.3069C28.7716 23.4403 29.2406 22.2887 29.2406 20.7966C30.852 20.7966 31.8541 20.3576 32.7486 19.4632C36.0914 16.1204 32.2737 12.4992 32.2737 12.4992L35.5866 9.18745C36.0039 8.76921 36.5605 8.53882 37.1538 8.53882C37.7471 8.53882 38.3038 8.76909 38.7225 9.18886C39.1383 9.60417 39.3789 10.2015 39.3825 10.8276C39.3862 11.4513 39.0415 12.1814 38.6148 12.608C38.3779 12.7695 38.1539 12.9537 37.9466 13.161C37.4838 13.6239 37.4838 14.3744 37.9466 14.8373C38.4095 15.3002 39.16 15.3002 39.6228 14.8373C40.0417 14.4183 40.5988 14.1876 41.1912 14.1876C41.7836 14.1876 42.3407 14.4183 42.7595 14.8373C43.1795 15.2572 43.4251 15.852 43.4334 16.4691C43.4418 17.0891 43.2959 17.5912 42.7221 18.1649C42.3709 18.3641 42.0401 18.6118 41.741 18.9108C41.2781 19.3737 41.2781 20.1242 41.741 20.5871C42.2039 21.05 42.9544 21.05 43.4173 20.5871C44.282 19.7223 45.6892 19.7223 46.5539 20.5871C46.8939 20.9269 48.4639 22.743 46.0516 25.1661C45.4406 25.6072 45.2814 25.6823 44.6038 26.1985C44.0831 26.5952 44.141 27.4119 44.6038 27.8748C45.0667 28.3376 45.8172 28.3376 46.28 27.8748C47.0529 27.1018 48.3034 26.6883 49.2217 27.6067C49.6406 28.0257 49.8714 28.5827 49.8714 29.1752C49.8714 29.7677 49.6406 30.3247 49.2217 30.7435L35.4778 44.4873C34.8216 45.1436 33.9131 45.5008 32.9854 45.4668ZM42.1146 51.3365L37.045 46.2669C37.0813 46.2324 48.2276 35.0898 48.2276 35.0898C48.2297 35.092 48.2314 35.0943 48.2337 35.0964L53.2942 40.1568L42.1146 51.3365Z" fill="#FF8888" stroke="white" stroke-width="1.2" mask="url(#path-1-inside-1)"></path><mask id="path-2-inside-2" fill="white"><path d="M32.9854 45.4668L24.8501 45.17C23.2658 45.1105 21.7154 45.7217 20.595 46.8423L17.0029 50.4237L6.58488 40.0058L12.264 34.3266C13.0821 34.9509 14.0631 35.2644 15.0448 35.2644C16.2198 35.2644 17.3948 34.8172 18.2893 33.9227C19.1559 33.056 19.6249 32.0323 19.6249 30.4123C21.3357 30.4123 22.2384 29.9735 23.1329 29.079C24.0757 28.1361 24.5211 26.8817 24.4702 25.6441C26.0125 25.6441 27.0105 25.2014 27.905 24.3069C28.7716 23.4403 29.2406 22.2887 29.2406 20.7966C30.852 20.7966 31.8541 20.3576 32.7486 19.4632C36.0914 16.1204 32.2737 12.4992 32.2737 12.4992L35.5866 9.18745C36.0039 8.76921 36.5605 8.53882 37.1538 8.53882C37.7471 8.53882 38.3038 8.76909 38.7225 9.18886C39.1383 9.60417 39.3789 10.2015 39.3825 10.8276C39.3862 11.4513 39.0415 12.1814 38.6148 12.608C38.3779 12.7695 38.1539 12.9537 37.9466 13.161C37.4838 13.6239 37.4838 14.3744 37.9466 14.8373C38.4095 15.3002 39.16 15.3002 39.6228 14.8373C40.0417 14.4183 40.5988 14.1876 41.1912 14.1876C41.7836 14.1876 42.3407 14.4183 42.7595 14.8373C43.1795 15.2572 43.4251 15.852 43.4334 16.4691C43.4418 17.0891 43.2959 17.5912 42.7221 18.1649C42.3709 18.3641 42.0401 18.6118 41.741 18.9108C41.2781 19.3737 41.2781 20.1242 41.741 20.5871C42.2039 21.05 42.9544 21.05 43.4173 20.5871C44.282 19.7223 45.6892 19.7223 46.5539 20.5871C46.8939 20.9269 48.4639 22.743 46.0516 25.1661C45.4406 25.6072 45.2814 25.6823 44.6038 26.1985C44.0831 26.5952 44.141 27.4119 44.6038 27.8748C45.0667 28.3376 45.8172 28.3376 46.28 27.8748C47.0529 27.1018 48.3034 26.6883 49.2217 27.6067C49.6406 28.0257 49.8714 28.5827 49.8714 29.1752C49.8714 29.7677 49.6406 30.3247 49.2217 30.7435L35.4778 44.4873C34.8216 45.1436 33.9131 45.5008 32.9854 45.4668Z"></path><path d="M13.3303 19.2762C13.7627 18.8438 14.3306 18.6276 14.8986 18.6276C15.3084 18.6276 15.7174 18.742 16.0763 18.967C16.0763 18.967 21.6145 24.4951 21.7182 24.5819C21.97 24.948 22.1065 25.3805 22.1065 25.8344C22.1065 26.4268 21.8757 26.9838 21.4568 27.4027C21.038 27.8217 20.4809 28.0524 19.8885 28.0524C19.2961 28.0524 18.739 27.8217 18.3202 27.4027L13.3304 22.413C12.4655 21.548 12.4655 20.1411 13.3303 19.2762Z"></path><path d="M10.6625 26.2959C11.0814 25.8769 11.6385 25.6462 12.2309 25.6462C12.8232 25.6462 13.3804 25.8769 13.7992 26.2958L16.613 29.1097C17.0319 29.5285 17.2627 30.0856 17.2627 30.678C17.2627 31.2704 17.0319 31.8275 16.613 32.2463C16.1941 32.6653 15.637 32.896 15.0446 32.896C14.4523 32.896 13.8953 32.6653 13.4763 32.2463L10.6625 29.4325C10.2436 29.0137 10.0129 28.4566 10.0129 27.8642C10.0129 27.2718 10.2436 26.7147 10.6625 26.2959Z"></path><path d="M17.1247 13.5264C17.557 13.094 18.1252 12.8778 18.693 12.8778C19.2611 12.8778 19.8291 13.094 20.2614 13.5264L26.2289 19.4939C26.6477 19.9127 26.8785 20.4697 26.8785 21.0622C26.8785 21.6546 26.6477 22.2117 26.2288 22.6305C25.4619 23.3975 24.2692 23.4827 23.4057 22.8892C23.3196 22.7866 17.1247 16.663 17.1247 16.663C16.2599 15.7983 16.2599 14.3913 17.1247 13.5264Z"></path><path d="M21.1627 7.87694C21.5815 7.458 22.1386 7.22726 22.731 7.22726C23.3234 7.22726 23.8805 7.458 24.2994 7.87694L31.0726 14.6501C31.4916 15.069 31.7223 15.6261 31.7223 16.2185C31.7223 16.8108 31.4916 17.368 31.0726 17.7868C30.6538 18.2057 30.0967 18.4365 29.5043 18.4365C28.9119 18.4365 28.3548 18.2057 27.936 17.7868L21.1628 11.0136C20.7438 10.5948 20.5131 10.0376 20.5131 9.44526C20.5131 8.85288 20.7437 8.29589 21.1627 7.87694Z"></path><path d="M29.1901 4.99647C29.6089 4.57753 30.1659 4.3469 30.7583 4.3469C31.3507 4.3469 31.9077 4.57753 32.3268 4.99671L34.4095 7.07843C34.2343 7.20991 31.239 10.1818 31.239 10.1818L29.1901 8.13276C28.7709 7.7137 28.5402 7.15647 28.5402 6.56397C28.5401 5.97171 28.7707 5.41519 29.1901 4.99647Z"></path><path d="M13.2507 54.1536L2.86008 43.7305L4.90863 41.6819L15.3217 52.095L13.2507 54.1536Z"></path><path d="M42.1146 51.3365L37.045 46.2669C37.0813 46.2324 48.2276 35.0898 48.2276 35.0898C48.2297 35.092 48.2314 35.0943 48.2337 35.0964L53.2942 40.1568L42.1146 51.3365Z"></path></mask><path d="M32.9854 45.4668L24.8501 45.17C23.2658 45.1105 21.7154 45.7217 20.595 46.8423L17.0029 50.4237L6.58488 40.0058L12.264 34.3266C13.0821 34.9509 14.0631 35.2644 15.0448 35.2644C16.2198 35.2644 17.3948 34.8172 18.2893 33.9227C19.1559 33.056 19.6249 32.0323 19.6249 30.4123C21.3357 30.4123 22.2384 29.9735 23.1329 29.079C24.0757 28.1361 24.5211 26.8817 24.4702 25.6441C26.0125 25.6441 27.0105 25.2014 27.905 24.3069C28.7716 23.4403 29.2406 22.2887 29.2406 20.7966C30.852 20.7966 31.8541 20.3576 32.7486 19.4632C36.0914 16.1204 32.2737 12.4992 32.2737 12.4992L35.5866 9.18745C36.0039 8.76921 36.5605 8.53882 37.1538 8.53882C37.7471 8.53882 38.3038 8.76909 38.7225 9.18886C39.1383 9.60417 39.3789 10.2015 39.3825 10.8276C39.3862 11.4513 39.0415 12.1814 38.6148 12.608C38.3779 12.7695 38.1539 12.9537 37.9466 13.161C37.4838 13.6239 37.4838 14.3744 37.9466 14.8373C38.4095 15.3002 39.16 15.3002 39.6228 14.8373C40.0417 14.4183 40.5988 14.1876 41.1912 14.1876C41.7836 14.1876 42.3407 14.4183 42.7595 14.8373C43.1795 15.2572 43.4251 15.852 43.4334 16.4691C43.4418 17.0891 43.2959 17.5912 42.7221 18.1649C42.3709 18.3641 42.0401 18.6118 41.741 18.9108C41.2781 19.3737 41.2781 20.1242 41.741 20.5871C42.2039 21.05 42.9544 21.05 43.4173 20.5871C44.282 19.7223 45.6892 19.7223 46.5539 20.5871C46.8939 20.9269 48.4639 22.743 46.0516 25.1661C45.4406 25.6072 45.2814 25.6823 44.6038 26.1985C44.0831 26.5952 44.141 27.4119 44.6038 27.8748C45.0667 28.3376 45.8172 28.3376 46.28 27.8748C47.0529 27.1018 48.3034 26.6883 49.2217 27.6067C49.6406 28.0257 49.8714 28.5827 49.8714 29.1752C49.8714 29.7677 49.6406 30.3247 49.2217 30.7435L35.4778 44.4873C34.8216 45.1436 33.9131 45.5008 32.9854 45.4668Z" fill="white"></path><path d="M13.3303 19.2762C13.7627 18.8438 14.3306 18.6276 14.8986 18.6276C15.3084 18.6276 15.7174 18.742 16.0763 18.967C16.0763 18.967 21.6145 24.4951 21.7182 24.5819C21.97 24.948 22.1065 25.3805 22.1065 25.8344C22.1065 26.4268 21.8757 26.9838 21.4568 27.4027C21.038 27.8217 20.4809 28.0524 19.8885 28.0524C19.2961 28.0524 18.739 27.8217 18.3202 27.4027L13.3304 22.413C12.4655 21.548 12.4655 20.1411 13.3303 19.2762Z" fill="white"></path><path d="M10.6625 26.2959C11.0814 25.8769 11.6385 25.6462 12.2309 25.6462C12.8232 25.6462 13.3804 25.8769 13.7992 26.2958L16.613 29.1097C17.0319 29.5285 17.2627 30.0856 17.2627 30.678C17.2627 31.2704 17.0319 31.8275 16.613 32.2463C16.1941 32.6653 15.637 32.896 15.0446 32.896C14.4523 32.896 13.8953 32.6653 13.4763 32.2463L10.6625 29.4325C10.2436 29.0137 10.0129 28.4566 10.0129 27.8642C10.0129 27.2718 10.2436 26.7147 10.6625 26.2959Z" fill="white"></path><path d="M17.1247 13.5264C17.557 13.094 18.1252 12.8778 18.693 12.8778C19.2611 12.8778 19.8291 13.094 20.2614 13.5264L26.2289 19.4939C26.6477 19.9127 26.8785 20.4697 26.8785 21.0622C26.8785 21.6546 26.6477 22.2117 26.2288 22.6305C25.4619 23.3975 24.2692 23.4827 23.4057 22.8892C23.3196 22.7866 17.1247 16.663 17.1247 16.663C16.2599 15.7983 16.2599 14.3913 17.1247 13.5264Z" fill="white"></path><path d="M21.1627 7.87694C21.5815 7.458 22.1386 7.22726 22.731 7.22726C23.3234 7.22726 23.8805 7.458 24.2994 7.87694L31.0726 14.6501C31.4916 15.069 31.7223 15.6261 31.7223 16.2185C31.7223 16.8108 31.4916 17.368 31.0726 17.7868C30.6538 18.2057 30.0967 18.4365 29.5043 18.4365C28.9119 18.4365 28.3548 18.2057 27.936 17.7868L21.1628 11.0136C20.7438 10.5948 20.5131 10.0376 20.5131 9.44526C20.5131 8.85288 20.7437 8.29589 21.1627 7.87694Z" fill="white"></path><path d="M29.1901 4.99647C29.6089 4.57753 30.1659 4.3469 30.7583 4.3469C31.3507 4.3469 31.9077 4.57753 32.3268 4.99671L34.4095 7.07843C34.2343 7.20991 31.239 10.1818 31.239 10.1818L29.1901 8.13276C28.7709 7.7137 28.5402 7.15647 28.5402 6.56397C28.5401 5.97171 28.7707 5.41519 29.1901 4.99647Z" fill="white"></path><path d="M13.2507 54.1536L2.86008 43.7305L4.90863 41.6819L15.3217 52.095L13.2507 54.1536Z" fill="white"></path><path d="M42.1146 51.3365L37.045 46.2669C37.0813 46.2324 48.2276 35.0898 48.2276 35.0898C48.2297 35.092 48.2314 35.0943 48.2337 35.0964L53.2942 40.1568L42.1146 51.3365Z" fill="white"></path><path d="M32.9854 45.4668L24.8501 45.17C23.2658 45.1105 21.7154 45.7217 20.595 46.8423L17.0029 50.4237L6.58488 40.0058L12.264 34.3266C13.0821 34.9509 14.0631 35.2644 15.0448 35.2644C16.2198 35.2644 17.3948 34.8172 18.2893 33.9227C19.1559 33.056 19.6249 32.0323 19.6249 30.4123C21.3357 30.4123 22.2384 29.9735 23.1329 29.079C24.0757 28.1361 24.5211 26.8817 24.4702 25.6441C26.0125 25.6441 27.0105 25.2014 27.905 24.3069C28.7716 23.4403 29.2406 22.2887 29.2406 20.7966C30.852 20.7966 31.8541 20.3576 32.7486 19.4632C36.0914 16.1204 32.2737 12.4992 32.2737 12.4992L35.5866 9.18745C36.0039 8.76921 36.5605 8.53882 37.1538 8.53882C37.7471 8.53882 38.3038 8.76909 38.7225 9.18886C39.1383 9.60417 39.3789 10.2015 39.3825 10.8276C39.3862 11.4513 39.0415 12.1814 38.6148 12.608C38.3779 12.7695 38.1539 12.9537 37.9466 13.161C37.4838 13.6239 37.4838 14.3744 37.9466 14.8373C38.4095 15.3002 39.16 15.3002 39.6228 14.8373C40.0417 14.4183 40.5988 14.1876 41.1912 14.1876C41.7836 14.1876 42.3407 14.4183 42.7595 14.8373C43.1795 15.2572 43.4251 15.852 43.4334 16.4691C43.4418 17.0891 43.2959 17.5912 42.7221 18.1649C42.3709 18.3641 42.0401 18.6118 41.741 18.9108C41.2781 19.3737 41.2781 20.1242 41.741 20.5871C42.2039 21.05 42.9544 21.05 43.4173 20.5871C44.282 19.7223 45.6892 19.7223 46.5539 20.5871C46.8939 20.9269 48.4639 22.743 46.0516 25.1661C45.4406 25.6072 45.2814 25.6823 44.6038 26.1985C44.0831 26.5952 44.141 27.4119 44.6038 27.8748C45.0667 28.3376 45.8172 28.3376 46.28 27.8748C47.0529 27.1018 48.3034 26.6883 49.2217 27.6067C49.6406 28.0257 49.8714 28.5827 49.8714 29.1752C49.8714 29.7677 49.6406 30.3247 49.2217 30.7435L35.4778 44.4873C34.8216 45.1436 33.9131 45.5008 32.9854 45.4668Z" stroke="white" stroke-width="1.2" mask="url(#path-2-inside-2)"></path><path d="M13.3303 19.2762C13.7627 18.8438 14.3306 18.6276 14.8986 18.6276C15.3084 18.6276 15.7174 18.742 16.0763 18.967C16.0763 18.967 21.6145 24.4951 21.7182 24.5819C21.97 24.948 22.1065 25.3805 22.1065 25.8344C22.1065 26.4268 21.8757 26.9838 21.4568 27.4027C21.038 27.8217 20.4809 28.0524 19.8885 28.0524C19.2961 28.0524 18.739 27.8217 18.3202 27.4027L13.3304 22.413C12.4655 21.548 12.4655 20.1411 13.3303 19.2762Z" stroke="white" stroke-width="1.2" mask="url(#path-2-inside-2)"></path><path d="M10.6625 26.2959C11.0814 25.8769 11.6385 25.6462 12.2309 25.6462C12.8232 25.6462 13.3804 25.8769 13.7992 26.2958L16.613 29.1097C17.0319 29.5285 17.2627 30.0856 17.2627 30.678C17.2627 31.2704 17.0319 31.8275 16.613 32.2463C16.1941 32.6653 15.637 32.896 15.0446 32.896C14.4523 32.896 13.8953 32.6653 13.4763 32.2463L10.6625 29.4325C10.2436 29.0137 10.0129 28.4566 10.0129 27.8642C10.0129 27.2718 10.2436 26.7147 10.6625 26.2959Z" stroke="white" stroke-width="1.2" mask="url(#path-2-inside-2)"></path><path d="M17.1247 13.5264C17.557 13.094 18.1252 12.8778 18.693 12.8778C19.2611 12.8778 19.8291 13.094 20.2614 13.5264L26.2289 19.4939C26.6477 19.9127 26.8785 20.4697 26.8785 21.0622C26.8785 21.6546 26.6477 22.2117 26.2288 22.6305C25.4619 23.3975 24.2692 23.4827 23.4057 22.8892C23.3196 22.7866 17.1247 16.663 17.1247 16.663C16.2599 15.7983 16.2599 14.3913 17.1247 13.5264Z" stroke="white" stroke-width="1.2" mask="url(#path-2-inside-2)"></path><path d="M21.1627 7.87694C21.5815 7.458 22.1386 7.22726 22.731 7.22726C23.3234 7.22726 23.8805 7.458 24.2994 7.87694L31.0726 14.6501C31.4916 15.069 31.7223 15.6261 31.7223 16.2185C31.7223 16.8108 31.4916 17.368 31.0726 17.7868C30.6538 18.2057 30.0967 18.4365 29.5043 18.4365C28.9119 18.4365 28.3548 18.2057 27.936 17.7868L21.1628 11.0136C20.7438 10.5948 20.5131 10.0376 20.5131 9.44526C20.5131 8.85288 20.7437 8.29589 21.1627 7.87694Z" stroke="white" stroke-width="1.2" mask="url(#path-2-inside-2)"></path><path d="M29.1901 4.99647C29.6089 4.57753 30.1659 4.3469 30.7583 4.3469C31.3507 4.3469 31.9077 4.57753 32.3268 4.99671L34.4095 7.07843C34.2343 7.20991 31.239 10.1818 31.239 10.1818L29.1901 8.13276C28.7709 7.7137 28.5402 7.15647 28.5402 6.56397C28.5401 5.97171 28.7707 5.41519 29.1901 4.99647Z" stroke="white" stroke-width="1.2" mask="url(#path-2-inside-2)"></path><path d="M13.2507 54.1536L2.86008 43.7305L4.90863 41.6819L15.3217 52.095L13.2507 54.1536Z" stroke="white" stroke-width="1.2" mask="url(#path-2-inside-2)"></path><path d="M42.1146 51.3365L37.045 46.2669C37.0813 46.2324 48.2276 35.0898 48.2276 35.0898C48.2297 35.092 48.2314 35.0943 48.2337 35.0964L53.2942 40.1568L42.1146 51.3365Z" stroke="white" stroke-width="1.2" mask="url(#path-2-inside-2)"></path><path d="M53.3345 50.2698C53.3345 50.7513 52.9442 51.1417 52.4626 51.1417C51.9811 51.1417 51.5908 50.7513 51.5908 50.2698C51.5908 49.7883 51.9811 49.3979 52.4626 49.3979C52.9442 49.3979 53.3345 49.7883 53.3345 50.2698Z" fill="#FF8888" stroke="white" stroke-width="0.6"></path></g><defs><clipPath id="clip0"><rect width="60" height="60" fill="white"></rect></clipPath></defs></svg>