<svg xmlns="http://www.w3.org/2000/svg" width="60" height="60" viewBox="0 0 60 60" fill="none"><g clip-path="url(#clip0)"><path d="M18.4433 6.51406H34.3552C34.8407 6.51406 35.2382 6.91163 35.2382 7.39704C35.2382 7.88245 34.8407 8.28002 34.3552 8.28002H18.4433C17.9579 8.28002 17.5603 7.88245 17.5603 7.39704C17.5603 6.91163 17.9579 6.51406 18.4433 6.51406Z" fill="#FF8888" stroke="white" stroke-width="0.2"></path><path d="M38.3135 3.52643C38.3135 3.04102 38.7111 2.64346 39.1965 2.64346C39.6819 2.64346 40.0795 3.04102 40.0795 3.52643V11.1814C40.0795 11.6668 39.6819 12.0643 39.1965 12.0643C38.7111 12.0643 38.3135 11.6668 38.3135 11.1814V3.52643Z" fill="#FF8888" stroke="white" stroke-width="0.2"></path><path d="M12.8789 3.52643C12.8789 3.04102 13.2765 2.64346 13.7619 2.64346C14.2473 2.64346 14.6449 3.04102 14.6449 3.52643V11.1814C14.6449 11.6668 14.2473 12.0643 13.7619 12.0643C13.2765 12.0643 12.8789 11.6668 12.8789 11.1814V3.52643Z" fill="#FF8888" stroke="white" stroke-width="0.2"></path><path d="M7.32343 18.5556H45.6226C46.108 18.5556 46.5056 18.9531 46.5056 19.4385C46.5056 19.9231 46.1089 20.3215 45.6103 20.3215H7.32343C6.83802 20.3215 6.44045 19.924 6.44045 19.4385C6.44045 18.9531 6.83802 18.5556 7.32343 18.5556Z" fill="#FF8888" stroke="white" stroke-width="0.2"></path><path d="M7.32343 26.2963H36.6775C37.1629 26.2963 37.5605 26.6939 37.5605 27.1793C37.5605 27.6655 37.1744 28.0622 36.6775 28.0622H7.32343C6.83802 28.0622 6.44045 27.6647 6.44045 27.1793C6.44045 26.6939 6.83802 26.2963 7.32343 26.2963Z" fill="#FF8888" stroke="white" stroke-width="0.2"></path><path d="M7.32343 33.9145H23.9112C24.3966 33.9145 24.7941 34.312 24.7941 34.7974C24.7941 35.2828 24.3966 35.6804 23.9112 35.6804H7.32343C6.83802 35.6804 6.44045 35.2828 6.44045 34.7974C6.44045 34.312 6.83802 33.9145 7.32343 33.9145Z" fill="#FF8888" stroke="white" stroke-width="0.2"></path><path d="M50.8922 31.8894C49.5955 31.4684 48.2416 31.2468 46.876 31.2588C39.6511 31.2588 33.7778 37.1075 33.7778 44.3447C33.7778 45.698 33.9879 47.0513 34.4195 48.3363L50.8922 31.8894ZM50.8922 31.8894V31.9223H50.9922L51.0238 31.8275C51.0133 31.824 51.0027 31.8205 50.9922 31.817V8.48006V8.38006H50.8922H43.0669C42.5263 8.38006 42.0839 7.93772 42.0839 7.39708C42.0839 6.85645 42.5263 6.41411 43.0669 6.41411H51.9997H52.0489C52.5526 6.41411 52.9704 6.84416 52.9581 7.34793V32.7579C55.3418 33.9989 57.2709 35.9403 58.5242 38.324L50.8922 31.8894ZM52.9119 32.8466C55.2772 34.078 57.1917 36.0044 58.4356 38.3704C61.7398 44.7354 59.2644 52.5877 52.8998 55.8919C46.5347 59.1964 38.6822 56.721 35.3779 50.3562L35.3499 50.3023H35.2891H0.946395H0.946251H0.946107H0.945964H0.945821H0.945678H0.945536H0.945394H0.945252H0.94511H0.944969H0.944828H0.944687H0.944546H0.944406H0.944266H0.944126H0.943987H0.943847H0.943708H0.94357H0.943431H0.943293H0.943155H0.943017H0.94288H0.942743H0.942606H0.942469H0.942333H0.942197H0.942061H0.941925H0.94179H0.941655H0.94152H0.941385H0.94125H0.941116H0.940982H0.940848H0.940715H0.940582H0.940449H0.940316H0.940183H0.940051H0.939919H0.939787H0.939655H0.939524H0.939393H0.939262H0.939131H0.939H0.93887H0.93874H0.93861H0.938481H0.938351H0.938222H0.938093H0.937964H0.937836H0.937707H0.937579H0.937451H0.937324H0.937196H0.937069H0.936942H0.936815H0.936688H0.936562H0.936435H0.936309H0.936183H0.936058H0.935932H0.935807H0.935682H0.935557H0.935432H0.935308H0.935183H0.935059H0.934935H0.934811H0.934688H0.934564H0.934441H0.934318H0.934195H0.934073H0.93395H0.933828H0.933706H0.933584H0.933462H0.93334H0.933219H0.933098H0.932976H0.932855H0.932735H0.932614H0.932494H0.932373H0.932253H0.932133H0.932014H0.931894H0.931774H0.931655H0.931536H0.931417H0.931298H0.93118H0.931061H0.930943H0.930824H0.930706H0.930588H0.930471H0.930353H0.930236H0.930118H0.930001H0.929884H0.929767H0.92965H0.929534H0.929417H0.929301H0.929184H0.929068H0.928952H0.928837H0.928721H0.928605H0.92849H0.928374H0.928259H0.928144H0.928029H0.927914H0.9278H0.927685H0.927571H0.927456H0.927342H0.927228H0.927114H0.927H0.926886H0.926773H0.926659H0.926546H0.926432H0.926319H0.926206H0.926093H0.92598H0.925867H0.925755H0.925642H0.92553H0.925417H0.925305H0.925193H0.925081H0.924969H0.924857H0.924745H0.924633H0.924522H0.92441H0.924299H0.924187H0.924076H0.923965H0.923854H0.923742H0.923631H0.923521H0.92341H0.923299H0.923188H0.923078H0.922967H0.922857H0.922747H0.922636H0.922526H0.922416H0.922306H0.922196H0.922086H0.921976H0.921866H0.921757H0.921647H0.921537H0.921428H0.921318H0.921209H0.921099H0.92099H0.920881H0.920771H0.920662H0.920553H0.920444H0.920335H0.920226H0.920117H0.920008H0.919899H0.919791H0.919682H0.919573H0.919464H0.919356H0.919247H0.919139H0.91903H0.918922H0.918813H0.918705H0.918596H0.918488H0.918379H0.918271H0.918163H0.918055H0.917946H0.917838H0.91773H0.917622H0.917514H0.917405H0.917297H0.917189H0.917081H0.916973H0.916865H0.916757H0.916649H0.916541H0.916433H0.916325H0.916217H0.916109H0.916001H0.915893H0.915785H0.915677H0.915569H0.915461H0.915353H0.915245H0.915137H0.915029H0.914921H0.914813H0.914705H0.914597H0.914489H0.914381H0.914272H0.914164H0.914056H0.913948H0.91384H0.913732H0.913624H0.913515H0.913407H0.913299H0.913191H0.913082H0.912974H0.912866H0.912757H0.912649H0.912541H0.912432H0.912324H0.912215H0.912106H0.911998H0.911889H0.911781H0.911672H0.911563H0.911454H0.911345H0.911236H0.911128H0.911019H0.91091H0.9108H0.910691H0.910582H0.910473H0.910364H0.910254H0.910145H0.910035H0.909926H0.909816H0.909707H0.909597H0.909487H0.909378H0.909268H0.909158H0.909048H0.908938H0.908827H0.908717H0.908607H0.908497H0.908386H0.908276H0.908165H0.908054H0.907944H0.907833H0.907722H0.907611H0.9075H0.907389H0.907278H0.907166H0.907055H0.906944H0.906832H0.90672H0.906609H0.906497H0.906385H0.906273H0.906161H0.906049H0.905936H0.905824H0.905711H0.905599H0.905486H0.905373H0.905261H0.905147H0.905034H0.904921H0.904808H0.904694H0.904581H0.904467H0.904353H0.90424H0.904126H0.904011H0.903897H0.903783H0.903668H0.903554H0.903439H0.903324H0.903209H0.903094H0.902979H0.902864H0.902748H0.902633H0.902517H0.902401H0.902285H0.902169H0.902053H0.901937H0.90182H0.901703H0.901587H0.90147H0.901353H0.901235H0.901118H0.901001H0.900883H0.900765H0.900647H0.900529H0.900411H0.900293H0.900174H0.900055H0.899937H0.899818H0.899698H0.899579H0.89946H0.89934H0.89922H0.8991H0.89898H0.89886H0.898739H0.898619H0.898498H0.898377H0.898256H0.898135H0.898013H0.897892H0.89777H0.897648H0.897526H0.897404H0.897281H0.897158H0.897035H0.896912H0.896789H0.896666H0.896542H0.896418H0.896294H0.89617H0.896046H0.895921H0.895797H0.895672H0.895547H0.895421H0.895296H0.89517H0.895044H0.894918H0.894792H0.894666H0.894539H0.894412H0.894285H0.894158H0.89403H0.893902H0.893774H0.893646H0.893518H0.893389H0.893261H0.893132H0.893002H0.892873H0.892743H0.892613H0.892483H0.892353H0.892223H0.892092H0.891961H0.89183H0.891698H0.891567H0.891435H0.891303H0.89117H0.891038H0.890905H0.890772H0.890639H0.890505H0.890371H0.890237H0.890103H0.889969H0.889834H0.889699H0.889564H0.889428H0.889293H0.889157H0.889021H0.888884H0.888748H0.888611H0.888474H0.888336H0.888198H0.888061H0.887922H0.887784H0.887645H0.887506H0.887367H0.887227H0.887088H0.886948H0.886807H0.886667H0.886526H0.886385H0.88633C0.438963 50.2908 0.0893019 49.9198 0.100251 49.4709H0.10028V49.4685V7.34793V7.34779V7.34765V7.3475V7.34736V7.34722V7.34708V7.34693V7.34679V7.34665V7.34651V7.34637V7.34623V7.34609V7.34595V7.34581V7.34567V7.34553V7.34539V7.34525V7.34511V7.34497V7.34483V7.34469V7.34456V7.34442V7.34428V7.34415V7.34401V7.34387V7.34374V7.3436V7.34346V7.34333V7.34319V7.34306V7.34292V7.34279V7.34266V7.34252V7.34239V7.34225V7.34212V7.34199V7.34186V7.34172V7.34159V7.34146V7.34133V7.3412V7.34106V7.34093V7.3408V7.34067V7.34054V7.34041V7.34028V7.34015V7.34002V7.33989V7.33976V7.33963V7.3395V7.33938V7.33925V7.33912V7.33899V7.33886V7.33874V7.33861V7.33848V7.33835V7.33823V7.3381V7.33798V7.33785V7.33772V7.3376V7.33747V7.33735V7.33722V7.3371V7.33697V7.33685V7.33672V7.3366V7.33647V7.33635V7.33623V7.3361V7.33598V7.33586V7.33573V7.33561V7.33549V7.33537V7.33525V7.33512V7.335V7.33488V7.33476V7.33464V7.33452V7.3344V7.33427V7.33415V7.33403V7.33391V7.33379V7.33367V7.33355V7.33343V7.33331V7.33319V7.33308V7.33296V7.33284V7.33272V7.3326V7.33248V7.33236V7.33225V7.33213V7.33201V7.33189V7.33178V7.33166V7.33154V7.33142V7.33131V7.33119V7.33107V7.33096V7.33084V7.33072V7.33061V7.33049V7.33038V7.33026V7.33014V7.33003V7.32991V7.3298V7.32968V7.32957V7.32945V7.32934V7.32922V7.32911V7.329V7.32888V7.32877V7.32865V7.32854V7.32843V7.32831V7.3282V7.32809V7.32797V7.32786V7.32775V7.32763V7.32752V7.32741V7.32729V7.32718V7.32707V7.32696V7.32684V7.32673V7.32662V7.32651V7.3264V7.32628V7.32617V7.32606V7.32595V7.32584V7.32573V7.32562V7.3255V7.32539V7.32528V7.32517V7.32506V7.32495V7.32484V7.32473V7.32462V7.32451V7.3244V7.32429V7.32418V7.32407V7.32396V7.32385V7.32374V7.32363V7.32352V7.32341V7.3233V7.32319V7.32308V7.32297V7.32286V7.32275V7.32264V7.32253V7.32242V7.32231V7.3222V7.32209V7.32198V7.32187V7.32177V7.32166V7.32155V7.32144V7.32133V7.32122V7.32111V7.321V7.3209V7.32079V7.32068V7.32057V7.32046V7.32035V7.32024V7.32014V7.32003V7.31992V7.31981V7.3197V7.31959V7.31949V7.31938V7.31927V7.31916V7.31905V7.31895V7.31884V7.31873V7.31862V7.31851V7.3184V7.3183V7.31819V7.31808V7.31797V7.31786V7.31776V7.31765V7.31754V7.31743V7.31732V7.31722V7.31711V7.317V7.31689V7.31678V7.31668V7.31657V7.31646V7.31635V7.31624V7.31614V7.31603V7.31592V7.31581V7.3157V7.3156V7.31549V7.31538V7.31527V7.31516V7.31506V7.31495V7.31484V7.31473V7.31462V7.31451V7.31441V7.3143V7.31419V7.31408V7.31397V7.31386V7.31375V7.31365V7.31354V7.31343V7.31332V7.31321V7.3131V7.31299V7.31289V7.31278V7.31267V7.31256V7.31245V7.31234V7.31223V7.31212V7.31201V7.3119V7.31179V7.31168V7.31158V7.31147V7.31136V7.31125V7.31114V7.31103V7.31092V7.31081V7.3107V7.31059V7.31048V7.31037V7.31026V7.31015V7.31004V7.30993V7.30982V7.3097V7.30959V7.30948V7.30937V7.30926V7.30915V7.30904V7.30893V7.30882V7.30871V7.30859V7.30848V7.30837V7.30826V7.30815V7.30804V7.30792V7.30781V7.3077V7.30759V7.30748V7.30736V7.30725V7.30714V7.30703V7.30691V7.3068V7.30669V7.30657V7.30646V7.30635V7.30623V7.30612V7.30601V7.30589V7.30578V7.30567V7.30555V7.30544V7.30532V7.30521V7.30509V7.30498V7.30486V7.30475V7.30463V7.30452V7.3044V7.30429V7.30417V7.30406V7.30394V7.30382V7.30371V7.30359V7.30348V7.30336V7.30324V7.30313V7.30301V7.30289V7.30278V7.30266V7.30254V7.30242V7.3023V7.30219V7.30207V7.30195V7.30183V7.30171V7.3016V7.30148V7.30136V7.30124V7.30112V7.301V7.30088V7.30076V7.30064V7.30052V7.3004V7.30028V7.30016V7.30004V7.29992V7.2998V7.29967V7.29955V7.29943V7.29931V7.29919V7.29907V7.29894V7.29882V7.2987V7.29858V7.29845V7.29833V7.29821V7.29808V7.29796V7.29783V7.29771V7.29759V7.29746V7.29734V7.29721V7.29709V7.29696V7.29684V7.29671V7.29658V7.29646V7.29633V7.29621V7.29608V7.29595V7.29582V7.2957V7.29557V7.29544V7.29531V7.29519V7.29506V7.29493V7.2948V7.29467V7.29454V7.29441V7.29428V7.29415V7.29402V7.29389V7.29376V7.29363V7.2935V7.29337V7.29324V7.29311V7.29297V7.29284V7.29271V7.29258V7.29244V7.29231V7.29218V7.29204V7.29191V7.29178V7.29164V7.29151V7.29137V7.29124V7.2911V7.29097V7.29083V7.2907V7.29056V7.29042V7.29029V7.29015V7.29001V7.28988V7.28974V7.2896V7.28946V7.28932V7.28918V7.28905V7.289C0.123347 6.84167 0.49418 6.50311 0.943956 6.51408L0.943956 6.51411H0.946395H8.60132C9.08673 6.51411 9.4843 6.91168 9.4843 7.39708C9.4843 7.88249 9.08673 8.28006 8.60132 8.28006H1.96623H1.86623V8.38006V48.4363V48.5363H1.96623H34.4536H34.594L34.5481 48.4037C34.0973 47.1 33.8778 45.7226 33.8778 44.3447C33.8778 37.1629 39.7061 31.3588 46.876 31.3588L46.8768 31.3588C48.2659 31.3466 49.6433 31.5781 50.9605 32.0172L51.0922 32.0611V31.9223V8.38006V8.28006H50.9922H43.0669C42.5815 8.28006 42.1839 7.88249 42.1839 7.39708C42.1839 6.91167 42.5815 6.51411 43.0669 6.51411H51.9997H51.9998H51.9999H51.9999H52H52.0001H52.0002H52.0002H52.0003H52.0004H52.0004H52.0005H52.0006H52.0007H52.0007H52.0008H52.0009H52.001H52.0011H52.0011H52.0012H52.0013H52.0014H52.0014H52.0015H52.0016H52.0017H52.0018H52.0018H52.0019H52.002H52.0021H52.0022H52.0022H52.0023H52.0024H52.0025H52.0026H52.0026H52.0027H52.0028H52.0029H52.003H52.0031H52.0031H52.0032H52.0033H52.0034H52.0035H52.0036H52.0036H52.0037H52.0038H52.0039H52.004H52.0041H52.0042H52.0042H52.0043H52.0044H52.0045H52.0046H52.0047H52.0048H52.0048H52.0049H52.005H52.0051H52.0052H52.0053H52.0054H52.0055H52.0056H52.0056H52.0057H52.0058H52.0059H52.006H52.0061H52.0062H52.0063H52.0064H52.0065H52.0066H52.0066H52.0067H52.0068H52.0069H52.007H52.0071H52.0072H52.0073H52.0074H52.0075H52.0076H52.0077H52.0078H52.0079H52.0079H52.008H52.0081H52.0082H52.0083H52.0084H52.0085H52.0086H52.0087H52.0088H52.0089H52.009H52.0091H52.0092H52.0093H52.0094H52.0095H52.0096H52.0097H52.0098H52.0099H52.01H52.0101H52.0102H52.0103H52.0104H52.0105H52.0106H52.0107H52.0107H52.0108H52.0109H52.011H52.0111H52.0112H52.0113H52.0114H52.0115H52.0116H52.0117H52.0118H52.0119H52.012H52.0121H52.0122H52.0123H52.0125H52.0126H52.0127H52.0128H52.0129H52.013H52.0131H52.0132H52.0133H52.0134H52.0135H52.0136H52.0137H52.0138H52.0139H52.014H52.0141H52.0142H52.0143H52.0144H52.0145H52.0146H52.0147H52.0148H52.0149H52.015H52.0151H52.0152H52.0153H52.0154H52.0155H52.0156H52.0157H52.0158H52.016H52.0161H52.0162H52.0163H52.0164H52.0165H52.0166H52.0167H52.0168H52.0169H52.017H52.0171H52.0172H52.0173H52.0174H52.0175H52.0176H52.0177H52.0178H52.018H52.0181H52.0182H52.0183H52.0184H52.0185H52.0186H52.0187H52.0188H52.0189H52.019H52.0191H52.0192H52.0193H52.0194H52.0196H52.0197H52.0198H52.0199H52.02H52.0201H52.0202H52.0203H52.0204H52.0205H52.0206H52.0207H52.0208H52.0209H52.0211H52.0212H52.0213H52.0214H52.0215H52.0216H52.0217H52.0218H52.0219H52.022H52.0221H52.0222H52.0223H52.0225H52.0226H52.0227H52.0228H52.0229H52.023H52.0231H52.0232H52.0233H52.0234H52.0235H52.0236H52.0237H52.0239H52.024H52.0241H52.0242H52.0243H52.0244H52.0245H52.0246H52.0247H52.0248H52.0249H52.025H52.0252H52.0253H52.0254H52.0255H52.0256H52.0257H52.0258H52.0259H52.026H52.0261H52.0262H52.0263H52.0264H52.0266H52.0267H52.0268H52.0269H52.027H52.0271H52.0272H52.0273H52.0274H52.0275H52.0276H52.0277H52.0278H52.028H52.0281H52.0282H52.0283H52.0284H52.0285H52.0286H52.0287H52.0288H52.0289H52.029H52.0291H52.0292H52.0293H52.0295H52.0296H52.0297H52.0298H52.0299H52.03H52.0301H52.0302H52.0303H52.0304H52.0305H52.0306H52.0307H52.0308H52.0309H52.031H52.0312H52.0313H52.0314H52.0315H52.0316H52.0317H52.0318H52.0319H52.032H52.0321H52.0322H52.0323H52.0324H52.0325H52.0326H52.0327H52.0328H52.0329H52.033H52.0331H52.0333H52.0334H52.0335H52.0336H52.0337H52.0338H52.0339H52.034H52.0341H52.0342H52.0343H52.0344H52.0345H52.0346H52.0347H52.0348H52.0349H52.035H52.0351H52.0352H52.0353H52.0354H52.0355H52.0356H52.0357H52.0358H52.0359H52.036H52.0361H52.0362H52.0363H52.0364H52.0365H52.0366H52.0367H52.0368H52.0369H52.037H52.0371H52.0372H52.0373H52.0374H52.0375H52.0376H52.0377H52.0378H52.0379H52.038H52.0381H52.0382H52.0383H52.0384H52.0385H52.0386H52.0387H52.0388H52.0389H52.039H52.0391H52.0392H52.0393H52.0394H52.0395H52.0396H52.0397H52.0398H52.0399H52.04H52.0401H52.0402H52.0402H52.0403H52.0404H52.0405H52.0406H52.0407H52.0408H52.0409H52.041H52.0411H52.0412H52.0413H52.0414H52.0415H52.0416H52.0417H52.0417H52.0418H52.0419H52.042H52.0421H52.0422H52.0423H52.0424H52.0425H52.0426H52.0427H52.0427H52.0428H52.0429H52.043H52.0431H52.0432H52.0433H52.0434H52.0435H52.0436H52.0436H52.0437H52.0438H52.0439H52.044H52.0441H52.0442H52.0443H52.0443H52.0444H52.0445H52.0446H52.0447H52.0448H52.0448H52.0449H52.045H52.0451H52.0452H52.0453H52.0454H52.0454H52.0455H52.0456H52.0457H52.0458H52.0459H52.0459H52.046H52.0461H52.0462H52.0463H52.0463H52.0464H52.0465H52.0466H52.0467H52.0467H52.0468H52.0469H52.047H52.0471H52.0471H52.0472H52.0473H52.0474H52.0474H52.0475H52.0476H52.0477H52.0478H52.0478H52.0479H52.048H52.0481H52.0481H52.0482H52.0483H52.0484H52.0484H52.0485H52.0486H52.0486H52.0487H52.0488H52.0489C52.4962 6.51411 52.8691 6.8976 52.8581 7.3455V7.34793V32.7579V32.8185L52.9119 32.8466ZM46.8882 55.6138H46.8884C53.0993 55.6014 58.1327 50.5682 58.1327 44.3693C58.1327 38.1582 53.0994 33.1248 46.8882 33.1248C40.6771 33.1248 35.6437 38.1582 35.6437 44.3693C35.6437 50.5804 40.6771 55.6138 46.8882 55.6138Z" fill="#FF8888" stroke="white" stroke-width="0.2"></path><path d="M47.8203 44.0128V44.1128H47.9203H52.7983C53.2854 44.1128 53.6813 44.4997 53.6813 44.9835C53.6813 45.4689 53.2837 45.8665 52.7983 45.8665H46.9004H46.9004H46.9003H46.9002H46.9001H46.9001H46.9H46.8999H46.8998H46.8998H46.8997H46.8996H46.8996H46.8995H46.8994H46.8993H46.8993H46.8992H46.8991H46.8991H46.899H46.8989H46.8988H46.8988H46.8987H46.8986H46.8986H46.8985H46.8984H46.8983H46.8983H46.8982H46.8981H46.898H46.898H46.8979H46.8978H46.8978H46.8977H46.8976H46.8975H46.8975H46.8974H46.8973H46.8973H46.8972H46.8971H46.897H46.897H46.8969H46.8968H46.8968H46.8967H46.8966H46.8965H46.8965H46.8964H46.8963H46.8962H46.8962H46.8961H46.896H46.896H46.8959H46.8958H46.8957H46.8957H46.8956H46.8955H46.8955H46.8954H46.8953H46.8952H46.8952H46.8951H46.895H46.895H46.8949H46.8948H46.8947H46.8947H46.8946H46.8945H46.8944H46.8944H46.8943H46.8942H46.8942H46.8941H46.894H46.8939H46.8939H46.8938H46.8937H46.8937H46.8936H46.8935H46.8934H46.8934H46.8933H46.8932H46.8932H46.8931H46.893H46.8929H46.8929H46.8928H46.8927H46.8926H46.8926H46.8925H46.8924H46.8924H46.8923H46.8922H46.8921H46.8921H46.892H46.8919H46.8919H46.8918H46.8917H46.8916H46.8916H46.8915H46.8914H46.8914H46.8913H46.8912H46.8911H46.8911H46.891H46.8909H46.8908H46.8908H46.8907H46.8906H46.8906H46.8905H46.8904H46.8903H46.8903H46.8902H46.8901H46.8901H46.89H46.8899H46.8898H46.8898H46.8897H46.8896H46.8896H46.8895H46.8894H46.8893H46.8893H46.8892H46.8891H46.889H46.889H46.8889H46.8888H46.8888H46.8887H46.8886H46.8885H46.8885H46.8884H46.8883H46.8883H46.8882H46.8881H46.888H46.888H46.8879H46.8878H46.8878H46.8877H46.8876H46.8875H46.8875H46.8874H46.8873H46.8872H46.8872H46.8871H46.887H46.887H46.8869H46.8868H46.8867H46.8867H46.8866H46.8865H46.8865H46.8864H46.8863H46.8862H46.8862H46.8861H46.886H46.886H46.8859H46.8858H46.8857H46.8857H46.8856H46.8855H46.8854H46.8854H46.8853H46.8852H46.8852H46.8851H46.885H46.8849H46.8849H46.8848H46.8847H46.8847H46.8846H46.8845H46.8844H46.8844H46.8843H46.8842H46.8842H46.8841H46.884H46.8839H46.8839H46.8838H46.8837H46.8836H46.8836H46.8835H46.8834H46.8834H46.8833H46.8832H46.8831H46.8831H46.883H46.8829H46.8829H46.8828H46.8827H46.8826H46.8826H46.8825H46.8824H46.8824H46.8823H46.8822H46.8821H46.8821H46.882H46.8819H46.8818H46.8818H46.8817H46.8816H46.8816H46.8815H46.8814H46.8813H46.8813H46.8812H46.8811H46.8811H46.881H46.8809H46.8808H46.8808H46.8807H46.8806H46.8806H46.8805H46.8804H46.8803H46.8803H46.8802H46.8801H46.88H46.88H46.8799H46.8798H46.8798H46.8797H46.8796H46.8795H46.8795H46.8794H46.8793H46.8793H46.8792H46.8791H46.879H46.879H46.8789H46.8788H46.8788H46.8787H46.8786H46.8785H46.8785H46.8784H46.8783H46.8782H46.8782H46.8781H46.878H46.878H46.8779H46.8778H46.8777H46.8777H46.8776H46.8775H46.8775H46.8774H46.8773H46.8772H46.8772H46.8771H46.877H46.877H46.8769H46.8768H46.8767H46.8767H46.8766H46.8765H46.8764H46.8764H46.8763H46.8762H46.8762H46.8761H46.876H46.8759H46.8759H46.8758H46.8757H46.8757H46.8756H46.8755H46.8754H46.8754H46.8753H46.8752H46.8752H46.8751H46.875H46.8749H46.8749H46.8748H46.8747H46.8746H46.8746H46.8745H46.8744H46.8744H46.8743H46.8742H46.8741H46.8741H46.874H46.8739H46.8739H46.8738H46.8737H46.8736H46.8736H46.8735H46.8734H46.8734H46.8733H46.8732H46.8731H46.8731H46.873H46.8729H46.8728H46.8728H46.8727H46.8726H46.8726H46.8725H46.8724H46.8723H46.8723H46.8722H46.8721H46.8721H46.872H46.8719H46.8718H46.8718H46.8717H46.8716H46.8716H46.8715H46.8714H46.8713H46.8713H46.8712H46.8711H46.871H46.871H46.8709H46.8708H46.8708H46.8707H46.8706H46.8705H46.8705H46.8704H46.8703H46.8703H46.8702H46.8701H46.87H46.87H46.8699H46.8698H46.8698H46.8697H46.8696H46.8695H46.8695H46.8694H46.8693H46.8692H46.8692H46.8691H46.869H46.869H46.8689H46.8688H46.8687H46.8687H46.8686H46.8685H46.8685H46.8684H46.8683H46.8682H46.8682H46.8681H46.868H46.868H46.8679H46.8678H46.8677H46.8677H46.8676H46.8675H46.8674H46.8674H46.8673H46.8672H46.8672H46.8671H46.867H46.8669H46.8669H46.8668H46.8667H46.8667H46.8666H46.8665H46.8664H46.8664H46.8663H46.8662H46.8662H46.8661H46.866H46.8659H46.8659H46.8658H46.8657H46.8656H46.8656H46.8655H46.8654H46.8654H46.8653H46.8652H46.8651H46.8651H46.865H46.8649H46.8649H46.8648H46.8647C46.3932 45.8549 46.0323 45.4602 46.0542 45.0006L46.0543 45.0006V44.9958V37.3409C46.0543 36.8555 46.4519 36.4579 46.9373 36.4579C47.4227 36.4579 47.8203 36.8555 47.8203 37.3409V44.0128Z" fill="#FF8888" stroke="white" stroke-width="0.2"></path></g><defs><clipPath id="clip0"><rect width="60" height="60" fill="white"></rect></clipPath></defs></svg>