<svg xmlns="http://www.w3.org/2000/svg" width="60" height="60" viewBox="0 0 60 60" fill="none"><g clip-path="url(#clip0)"><path d="M0.324097 30.0001C0.324097 13.5954 13.6695 0.25 30.0737 0.25C46.4773 0.25 59.8227 13.5954 59.8227 30.0001C59.8227 46.4042 46.4773 59.7501 30.0737 59.7501C13.6695 59.7501 0.324097 46.4042 0.324097 30.0001ZM2.26998 30.0001C2.26998 45.3307 14.7425 57.8043 30.0737 57.8043C45.4044 57.8043 57.8768 45.3307 57.8768 30.0001C57.8768 14.6689 45.4043 2.19588 30.0737 2.19588C14.7425 2.19588 2.26998 14.6689 2.26998 30.0001Z" fill="#FF8888" stroke="white" stroke-width="0.5"></path><path d="M13.0268 29.889C13.0268 29.889 13.0269 29.8889 13.0269 29.8889C13.4075 29.5089 14.023 29.5091 14.4029 29.8889L14.5775 29.7143L14.4029 29.8889L24.0594 39.545L24.2362 39.7217L24.413 39.545L45.744 18.2144L45.5672 18.0376L45.744 18.2144C46.124 17.8345 46.74 17.8345 47.12 18.2144C47.4999 18.5943 47.4999 19.2104 47.12 19.5904L24.9242 41.7857C24.7343 41.9756 24.4857 42.0704 24.2362 42.0704C23.9867 42.0704 23.7381 41.9756 23.5482 41.7857L23.3714 41.9625M13.0268 29.889L12.8501 29.7121C12.3725 30.1897 12.3725 30.9636 12.8501 31.4417L23.3714 41.9625M13.0268 29.889C12.647 30.2689 12.6469 30.8844 13.0269 31.2649C13.0269 31.2649 13.027 31.265 13.027 31.265M13.0268 29.889L13.027 31.265M23.3714 41.9625L23.5482 41.7857L13.027 31.265M23.3714 41.9625L13.027 31.265" fill="#FF8888" stroke="white" stroke-width="0.5"></path></g><defs><clipPath id="clip0"><rect width="60" height="60" fill="white"></rect></clipPath></defs></svg>